<svg xmlns="http://www.w3.org/2000/svg" width="77.853" height="145" viewBox="0 0 77.853 145"><defs><style>.a{fill:#666;}</style></defs><g transform="translate(-367.073 -4042.413)"><path class="a" d="M374.009,4113.435a53.394,53.394,0,0,0,1.617,13.724c2.392,9.731,8.221,23.037,10.264,27.556a7.4,7.4,0,0,0-1.372,4.189,7.37,7.37,0,0,1,0,9.941,7.554,7.554,0,0,0,2.391,5.55,7.457,7.457,0,0,0-1.732,4.687c-.038,4.315,3.725,7.875,8.389,7.937l30.319.394h.123a8.8,8.8,0,0,0,6.132-2.433,7.429,7.429,0,0,0-.084-10.842,19.182,19.182,0,0,1,1.728-14.629,7.459,7.459,0,0,0-1.9-5.024c2.131-4.73,7.8-17.76,10.156-27.337a53.377,53.377,0,0,0,1.614-13.713,33.82,33.82,0,0,0-67.64,0Zm52.551,67.881a3.479,3.479,0,0,1-2.606.981l-30.323-.4c-1.851-.024-3.349-1.265-3.334-2.768a2.824,2.824,0,0,1,2.292-2.529,2.559,2.559,0,0,0-.238-5,3,3,0,0,1-2.713-2.705,2.8,2.8,0,0,1,2.146-2.484,2.559,2.559,0,0,0,.023-4.882,2.854,2.854,0,0,1-2.169-2.576,2.231,2.231,0,0,1,.383-1.2h35.892a2.4,2.4,0,0,1,.751,1.705,2.8,2.8,0,0,1-2.143,2.48,2.56,2.56,0,0,0-.023,4.883,2.848,2.848,0,0,1,2.166,2.575,2.81,2.81,0,0,1-2.284,2.53,2.56,2.56,0,0,0,.233,5,3.008,3.008,0,0,1,2.714,2.706A2.39,2.39,0,0,1,426.56,4181.316Zm-18.729-96.579a28.732,28.732,0,0,1,28.7,28.7,48.435,48.435,0,0,1-1.471,12.5c-2.261,9.214-8,22.329-9.965,26.7h-34.53c-1.963-4.368-7.7-17.476-9.965-26.685a48.6,48.6,0,0,1-1.472-12.513A28.733,28.733,0,0,1,407.831,4084.737Z"/><path class="a" d="M372.4,4054.464a2.982,2.982,0,1,0-4.684,3.691l15.261,19.385a3,3,0,0,0,2.346,1.134h.1a2.983,2.983,0,0,0,2.859-2.633,2.96,2.96,0,0,0-.617-2.2Z"/><path class="a" d="M427.7,4077.954h0a2.941,2.941,0,0,0,1.648.5h.069a3.017,3.017,0,0,0,2.419-1.33l12.589-18.936a2.987,2.987,0,0,0-3.077-4.58,2.967,2.967,0,0,0-1.9,1.276l-12.586,18.933a2.965,2.965,0,0,0-.437,2.241A2.935,2.935,0,0,0,427.7,4077.954Z"/><path class="a" d="M407.214,4073.531h.192a3.007,3.007,0,0,0,2.912-2.859l1.062-25.149a2.986,2.986,0,0,0-5.967-.253l-1.058,25.153a2.985,2.985,0,0,0,2.855,3.108Z"/><path class="a" d="M389.7,4108.656h0a2.825,2.825,0,0,0,2.982-2.618,12.039,12.039,0,0,1,.341-2.15c1.172-4.637,4.932-6.45,7.875-7.163a12.934,12.934,0,0,1,2.5-.368,2.81,2.81,0,0,0-.122-5.618c-5.266.111-15.426,3.376-16.2,14.928A2.816,2.816,0,0,0,389.7,4108.656Z"/></g></svg>