<svg xmlns="http://www.w3.org/2000/svg" width="122" height="124" viewBox="0 0 122 124"><defs><style>.a{fill:#666;}</style></defs><g transform="translate(-925 -4053)"><path class="a" d="M982,4102.428a2.428,2.428,0,0,0-2.427-2.428H927.427a2.428,2.428,0,0,0-2.427,2.428v72.144a2.428,2.428,0,0,0,2.427,2.428h52.146a2.428,2.428,0,0,0,2.427-2.428ZM977,4105v67H930v-67Z"/><path class="a" d="M982,4055.428a2.428,2.428,0,0,0-2.427-2.428H927.427a2.428,2.428,0,0,0-2.427,2.428v34.144a2.428,2.428,0,0,0,2.427,2.428h52.146a2.428,2.428,0,0,0,2.427-2.428ZM977,4058v29H930v-29Z"/><path class="a" d="M1047,4055.428a2.429,2.429,0,0,0-2.43-2.428H992.43a2.429,2.429,0,0,0-2.43,2.428v119.144a2.429,2.429,0,0,0,2.43,2.428h52.14a2.429,2.429,0,0,0,2.43-2.428Zm-5,2.572v114H995V4058Z"/></g></svg>