<svg xmlns="http://www.w3.org/2000/svg" width="123" height="122" viewBox="0 0 123 122"><defs><style>.a{fill:#666;}</style></defs><g transform="translate(-1504 -4054)"><path class="a" d="M1627,4056.167a2.166,2.166,0,0,0-2.166-2.167H1506.166a2.166,2.166,0,0,0-2.166,2.167v117.666a2.167,2.167,0,0,0,2.166,2.167h118.668a2.167,2.167,0,0,0,2.166-2.167ZM1623,4083v89H1509v-89Zm-114-5v-20h114v20Z"/><path class="a" d="M1518.155,4063.128a5.48,5.48,0,1,0,5.478,5.482A5.49,5.49,0,0,0,1518.155,4063.128Zm0,7.627a2.147,2.147,0,1,1,2.145-2.145A2.146,2.146,0,0,1,1518.155,4070.755Z"/><path class="a" d="M1532.01,4063.128a5.48,5.48,0,1,0,5.479,5.482A5.49,5.49,0,0,0,1532.01,4063.128Zm0,7.627a2.147,2.147,0,1,1,2.146-2.145A2.146,2.146,0,0,1,1532.01,4070.755Z"/><path class="a" d="M1545.865,4063.128a5.48,5.48,0,1,0,5.478,5.482A5.49,5.49,0,0,0,1545.865,4063.128Zm0,7.627a2.147,2.147,0,1,1,2.146-2.145A2.146,2.146,0,0,1,1545.865,4070.755Z"/><path class="a" d="M1544.291,4141.705a2.416,2.416,0,1,0,4.042-2.646l-9.733-14.853,9.733-14.852a2.415,2.415,0,1,0-4.04-2.648l-10.6,16.177a2.413,2.413,0,0,0,0,2.647Z"/><path class="a" d="M1583.6,4140.877a2.414,2.414,0,0,0,4.384.83l10.6-16.175a2.415,2.415,0,0,0,0-2.65l-10.6-16.175a2.415,2.415,0,0,0-4.041,2.647l9.734,14.852-9.734,14.853A2.4,2.4,0,0,0,1583.6,4140.877Z"/><path class="a" d="M1554.767,4154.017a2.421,2.421,0,0,0,3.1-1.431l21.072-57.151a2.414,2.414,0,0,0-1.43-3.1h0a2.422,2.422,0,0,0-3.1,1.432l-21.074,57.149A2.423,2.423,0,0,0,1554.767,4154.017Z"/></g></svg>