<svg xmlns="http://www.w3.org/2000/svg" width="92" height="142" viewBox="0 0 92 142"><defs><style>.a{fill:#666;}</style></defs><g transform="translate(-360 -4609)"><path class="a" d="M450,4624H434v-12.787a1.947,1.947,0,0,0-2.038-2.213h-16.75a2.077,2.077,0,0,0-2.212,2.213V4624H362.385c-1.342,0-2.385.672-2.385,2.014v123.049c0,1.342,1.043,1.937,2.385,1.937H450c1.342,0,2-.6,2-1.937V4626.014A1.77,1.77,0,0,0,450,4624Zm-20,1.99c0,.008,0,.015,0,.024s0,.016,0,.024V4640H418v-13.967l0-.019,0-.02V4614h12ZM415.212,4645h16.75a1.965,1.965,0,0,0,2.038-2.236V4628h14v119H365V4628h48v14.764A2.094,2.094,0,0,0,415.212,4645Z"/><path class="a" d="M402.64,4663.5a2.494,2.494,0,0,0,2.432,2.5h26.89a2.5,2.5,0,0,0,0-5h-26.89A2.492,2.492,0,0,0,402.64,4663.5Z"/><path class="a" d="M431.962,4694h-26.89a2.5,2.5,0,0,0,0,5h26.89a2.5,2.5,0,0,0,0-5Z"/><path class="a" d="M431.962,4729h-51.89a2.5,2.5,0,0,0,0,5h51.89a2.5,2.5,0,0,0,0-5Z"/><path class="a" d="M380.706,4673.466a2.324,2.324,0,0,0,1.813,1.165c.036,0,.152.008.189.008a2.292,2.292,0,0,0,1.733-.792l13.12-15.106a2.3,2.3,0,0,0-3.468-3.01l-10.98,12.646-2.307-4.106a2.3,2.3,0,0,0-4,2.25Z"/><path class="a" d="M380.428,4705.473l5.611-5.612,5.615,5.616a2.3,2.3,0,0,0,3.242-3.25l-5.612-5.611L394.9,4691a2.295,2.295,0,0,0-3.246-3.244l-5.611,5.611-5.611-5.611a2.294,2.294,0,0,0-3.245,3.244l5.611,5.612-5.611,5.611a2.295,2.295,0,0,0,3.245,3.246Z"/></g></svg>