<svg xmlns="http://www.w3.org/2000/svg" width="123.956" height="118.754" viewBox="0 0 123.956 118.754"><defs><style>.a{fill:#666;}</style></defs><g transform="translate(-924.023 -4620.673)"><path class="a" d="M972.135,4642.751a2.473,2.473,0,0,0,3.542-.624l7.323-10.51v42.142a3.022,3.022,0,0,0,6,0v-42.145l7.325,10.515a2.508,2.508,0,0,0,3.581.622,2.608,2.608,0,0,0,1.062-1.728,2.635,2.635,0,0,0-.467-1.983l-12.329-17.293a2.728,2.728,0,0,0-4.34,0l-12.323,17.291a2.661,2.661,0,0,0,.626,3.712Z"/><path class="a" d="M925.49,4669.45,984.8,4699.3a2.679,2.679,0,0,0,2.394,0l59.314-29.849a2.658,2.658,0,0,0-.069-4.787l-12.893-6.042a2.658,2.658,0,0,0-3.539,1.279,2.665,2.665,0,0,0,1.28,3.54l7.934,3.72L986,4693.942l-53.225-26.782,7.756-3.635a2.661,2.661,0,0,0-.234-4.915,2.631,2.631,0,0,0-2.027.1l-12.712,5.955a2.659,2.659,0,0,0-.07,4.788Z"/><path class="a" d="M1046.441,4683.539l-12.893-6.042a2.661,2.661,0,1,0-2.259,4.819l7.934,3.719L986,4712.818l-53.225-26.783,7.754-3.633a2.66,2.66,0,0,0-.224-4.912,2.626,2.626,0,0,0-2.035.093l-12.712,5.955a2.658,2.658,0,0,0-.07,4.787l59.312,29.852a2.682,2.682,0,0,0,2.394,0l59.313-29.853a2.658,2.658,0,0,0-.068-4.787Z"/><path class="a" d="M1046.441,4704.509l-12.893-6.042a2.661,2.661,0,1,0-2.259,4.819l7.934,3.72L986,4733.784l-53.225-26.778,7.755-3.634a2.663,2.663,0,0,0-2.26-4.823l-12.712,5.959a2.659,2.659,0,0,0-.07,4.788l59.312,29.847a2.675,2.675,0,0,0,2.394,0l59.314-29.849a2.658,2.658,0,0,0-.069-4.787Z"/></g></svg>