<svg xmlns="http://www.w3.org/2000/svg" width="877.889" height="2025.038" viewBox="0 0 877.889 2025.038"><g transform="translate(2595 -4720.973)"><g transform="translate(-2595)"><path d="M717.271,5901.461c-113-180.555-225.868-370.081-335.037-553.315C258.771,5140.9,132.457,4928.9,0,4720.973V6686.3c166.7,84.414,372.23,82.031,542.35-24.5C800.593,6500.157,878.917,6159.74,717.271,5901.461Z" fill="#387dff"/></g><g transform="translate(-2595)"><path d="M267.56,6292.92a60.309,60.309,0,0,1-55.258-84.284c7.056-16.269,13.931-32.6,20.75-48.814,60.485-143.745,129.038-306.674,303.6-309.534,169.078-2.641,241.311,153.8,305.045,291.942,9.763,21.158,19.855,43.043,30.065,63.954a60.272,60.272,0,1,1-108.318,52.9c-10.8-22.1-21.174-44.6-31.211-66.351-64.119-139-109.245-223.37-193.6-221.91-91.3,1.5-133.377,90.562-194.466,235.758-6.993,16.618-14.04,33.37-21.284,50.051A60.285,60.285,0,0,1,267.56,6292.92Z" fill="#00bbf7"/><path d="M576.61,6351.951c-76.657,44.257-201.333,44.032-278.47-.5s-77.529-116.517-.873-160.774,201.333-44.036,278.472.5,77.527,116.515.871,160.776Z" fill="#dff2f8" opacity="0.35"/><path d="M776.311,6272.963c-76.655,44.257-201.331,44.032-278.468-.5s-77.529-116.519-.873-160.776,201.331-44.031,278.47.5,77.529,116.517.871,160.773Z" fill="#dff2f8" opacity="0.35"/><path d="M745.995,6404.178c-76.656,44.259-201.331,44.034-278.469-.5S390,6287.159,466.653,6242.9s201.331-44.034,278.471.5,77.528,116.519.871,160.776Z" fill="#dff2f8" opacity="0.35"/><path d="M825.295,6397.03c-43.756,25.262-114.922,25.134-158.954-.286s-44.255-66.51-.5-91.774,114.924-25.132,158.956.288,44.253,66.51.5,91.772Z" fill="#dff2f8" opacity="0.35"/><path d="M527.688,6466.222c-43.758,25.262-114.924,25.134-158.955-.287s-44.255-66.512-.5-91.774,114.924-25.134,158.955.287,44.254,66.511.5,91.774Z" fill="#dff2f8" opacity="0.35"/><path d="M756.727,6451.344c-9.664,5.579-25.382,5.549-35.1-.064s-9.774-14.688-.112-20.267,25.382-5.551,35.1.063,9.772,14.688.11,20.268Z" fill="#dff2f8"/><path d="M293.219,6237.74s15.651,18.285,19.825,19.512.409,5.528-2.8,5.854-13.391-.1-16.361-3.026-11.361-6.039-11.361-6.039a47.354,47.354,0,0,1,2.266-15.44l8.426-.861Z" fill="#002745" fill-rule="evenodd"/><path d="M298.707,6108.566s2.029,40.468,1.286,53.737-3.975,79.145-3.975,79.145c-8.567,1.841-14.014,0-14.014,0-2.818-50.513-2.734-65.039-3.544-72.569s-1.808-29.308-1.808-29.308c-6.039-12.5.279-28.764,3.258-32.681s18.8,1.676,18.8,1.676Z" fill="#002745" fill-rule="evenodd"/><path d="M267.639,6255.1c.525,7.4,3.2,16.11,3.874,20.543a10.522,10.522,0,0,1-1.937,8.376c-1.023,1.422-13.531-2.711-15.241-7.531s1.794-9.039,2.064-18.075c4.042-7.23,11.24-3.313,11.24-3.313Z" fill="#002745" fill-rule="evenodd"/><path d="M285.7,6111.71s-2.155,36.831-5.549,49.1-6.445,48.247-7.891,54.524-3.21,45.04-3.21,45.04a27.63,27.63,0,0,1-13.9,0c.164-36.3-.713-65.808,0-75.766s-.283-39.461-.283-39.461c-3.221-13.738-3.413-15.493,0-24.617s18.09-16.354,30.832-8.822Z" fill="#00476f" fill-rule="evenodd"/><path d="M292.8,6024.294c12.712,3.578,19.538,35.527,23.1,42.7s33.24,8.964,33.24,8.964c1.781,6.225-3.262,12.753-3.262,12.753-28.588-1.185-38.672-3.56-43.971-14.837s-23.9-45.738-9.107-49.583Z" fill="#3d5ded" fill-rule="evenodd"/><path d="M292.8,6024.294c-11.292-.5-37.466,5.372-46.086,16.365s3.893,30.421,6.891,42.128-1.385,41.1-1.377,43.918c13.378,8.873,45.6,10,49.216-3.236,1.493-14.4-1.805-31.493-1.982-39.914.434-18.094,8.285-53.9-6.662-59.261Z" fill="#fff" fill-rule="evenodd"/><path d="M283.1,6026.983c7.271,25.523,8.98,54.164,8.274,65s-1,45.855-1,45.855c8.458-4.453,12.169-12.613,12.169-16.324s-3.186-35.406-3.082-37.956,4.269-31.643,3.082-44.7-9.744-14.558-9.744-14.558H281.912l1.189,2.689Z" fill="#5b6bf4" fill-rule="evenodd"/><path d="M290.112,5996.166c4.972,1.569,0,12.877,0,12.877v-12.877Z" fill="#0d2d90" fill-rule="evenodd"/><path d="M290.368,5997.655s1.876,6.617,1.171,11.763-1.172,15.391-5.73,18.668-11.093-.526-15.42-4.2-8.915-10.453-9.018-18.648,3.1-18.241,14.925-17.727,14.072,10.144,14.072,10.144Z" fill="#ffc8ae" fill-rule="evenodd"/><path d="M267.417,6016.61s.922,10.555-1.844,14.448c-.2,2.6,7.245,13.606,14.653,11.681,4.316-1.118,3.8-6.146,3.8-6.146-.46-3.841,0-13.116,0-13.116l-16.606-6.867Z" fill="#ffc8ae" fill-rule="evenodd"/><path d="M293.272,5988.819c1.682,6.076-.239,8.259-5.362,10s-18.751-2.209-18.751-2.209c.923,6.51-1.127,9.882-1.127,9.882-2.254-6.394-4.3-3.139-4.508,1.976s2.663,5,2.663,5c-.2,4.3-1.587,5.765-1.587,5.765-5.482-3.791-12.943-29.118-3.065-29.7.143-8.842,28.128-13.727,31.737-.711Z" fill="#002745" fill-rule="evenodd"/><path d="M265.114,6029.378c8.787,18.527,13.385,35.447,13.09,50.729s-3.453,59.805-3.453,59.805c-15.246-3.709-25.634-8.013-28.6-13.207,6.528-17.214,8.9-28.789,7.566-33.685s-12.851-42.234-6.87-53.319c5.683-6.19,18.267-10.323,18.267-10.323Z" fill="#5b6bf4" fill-rule="evenodd"/><path d="M251.81,6039.386c10.509,5.229,18.855,34.2,26.87,41.97,4.542,4.406,26.972,10.153,33.206,10.309,2.414,5.5-1.929,11.614-1.929,11.614-38.285-3.593-39.979-5.7-51.757-20.727-14.621-18.654-20.461-46.765-6.39-43.166Z" fill="#6a81f7" fill-rule="evenodd"/><path d="M283.844,6029.049c-3.182,1.218-7.853-.693-13.916-5.568,0,0,1.792,7.112,13.916,9.717v-4.149Z" fill="#ffae91" fill-rule="evenodd"/><path d="M267.071,6026.907a21.4,21.4,0,0,1-1.957,2.471s3.811,8.328,5.184,12a19.5,19.5,0,0,0,4.989,6.746l4.939-5.39c-6.809-3.6-13.155-15.832-13.155-15.832Z" fill="#fff" fill-rule="evenodd"/><path d="M283.4,6029.562c-.452-.56-1.535,10.4-3.177,13.177a20.186,20.186,0,0,0,5.049,3.78s1.887-12.267-1.872-16.957Z" fill="#fff" fill-rule="evenodd"/><path d="M619.447,6143.31c-.383,5.481-.889,10.954-.889,10.954h-1.217s0-8.282-1.295-6.54c.18-4.509,3.4-4.414,3.4-4.414Z" fill="#002745" fill-rule="evenodd"/><path d="M602.537,6152.643c-.583,0-1.377-.639-2.079-1.6,1.242-1.483,2.475-2.937,3.3-4.074,2.635-3.658,6.9-11.768,7.1-15.417s-2.029-41.771-2.635-46.435-2.354-22.307-2.193-23.317,16.386,6.264,16.386,6.264c-.2,1.438-2.395,10.562-1.5,16.445s2.315,9.766,1.5,19.382-5.475,25.025-3.852,32.324c.028.132.052.248.08.374-4.772,6.543-6.45,19.266-16.1,16.051Z" fill="#ffc8ae" fill-rule="evenodd"/><path d="M600.458,6151.046c.7.958,1.5,1.6,2.079,1.6,9.651,3.215,11.329-9.508,16.1-16.051,1.511,6.939.839,7.755-.421,8.75-1.282,1.014-5.743,6.489-6.554,10.343s-12.978,3.445-15.208,2.635c-1.535-.558,1.257-3.995,4-7.274Z" fill="#002745" fill-rule="evenodd"/><path d="M636.069,6100.927c.471,4.267,2.968,37.115,2.563,42.6-.244,3.34-1.833,8.6-2.823,12.814-.633,2.678-1.007,4.949-.633,6.035.973,2.807,1.021,11.162,5.549,9.279s7.543-7.706,6.618-14.145c-.908-6.441.178-9.539-.08-13.382s2.318-27.789,2.722-36.288c.406-8.533-2.432-12.589-2.642-18.267s1.509-17.519,1.509-17.519-19.547-10.25-17.941,2.108c1.606,12.377,4.687,22.518,5.158,26.766Z" fill="#ffc8ae" fill-rule="evenodd"/><path d="M634.374,6162.681c.3,5.709,1.823,10.856,6.351,8.973s7.543-7.706,6.618-14.145c-2.434,7.1-11.728,6.8-11.534-1.169-.633,2.678-1.5,5.192-1.435,6.341Z" fill="#002745" fill-rule="evenodd"/><path d="M604.7,6021.058s.037,39.606,0,52.607,3.369,56.8,3.369,56.8c6.6,2.54,13.065-.6,13.065-.6.955-11.315,4.269-29.937,4.837-39.72s-3.888-11.42-2.032-18.572,6.878-45.414,6.878-45.414l-26.115-5.1Z" fill="#ff827e" fill-rule="evenodd"/><path d="M625.972,6029.4s3.381,42.528,4.846,47.921,2.488,26.169,3.552,33.328,1.169,27.76,1.169,27.76c2.587,8.415,13.253,1.3,13.253,1.3,4.443-26.355,1.365-39.456,1.234-47.18s3.642-27.939,2.877-36.337-1.673-25.856-.057-29.1,3.468-8.63,4.071-18.329c-12.583-4.78-32.33.588-32.33.588l1.385,20.046Z" fill="#ff827e" fill-rule="evenodd"/><path d="M606.607,5936.83c11.139-.555,30.056,12.626,38.622,23.429s3.266,22.521.37,34.089,1.586,40.557,1.593,43.341c-13.157,8.826-37.747,9.932-41.387-3.1-1.55-14.2,1.628-29.008,1.76-37.321-.526-17.856-15.682-55.067-.958-60.434Z" fill="#fff" fill-rule="evenodd"/><path d="M616.332,5939.424c-5.791,25.193-3.973,52.411-2.689,63.084s1.528,46.2,1.528,46.2c-8.59-4.342-12.694-12.364-12.9-16.021s3.125-34.457,2.887-36.968-4.608-26.3-4.145-39.18,5.308-14.839,5.308-14.839l11.032-4.93-1.026,2.656Z" fill="#ffd150" fill-rule="evenodd"/><path d="M632.463,5942.065c-8.572,18.334-4.442,35.143-4.068,50.228s8.2,57.44,8.2,57.44c15.025-3.742,16.819-13.812,19.722-18.952,6.934-35.27-1.82-63.927-8.337-74.514-5.108-8.3-15.512-14.2-15.512-14.2Z" fill="#ffd150" fill-rule="evenodd"/><path d="M572.029,5999.11a8.35,8.35,0,0,0,7.561-.013c2.095-1.21,2.1-3.164.024-4.366a8.353,8.353,0,0,0-7.561.013c-2.1,1.21-2.107,3.165-.024,4.366Z" fill="#53c9ff"/><path d="M641.946,5956.522c-10.4,5.107-11.374,35.693-19.324,43.319-4.505,4.321-22.543.871-28.7.992-2.41,5.415.856,11.968.856,11.968,34.363,1.682,38.5,2.741,47.227-13.957,6.819-13.036,13.842-45.8-.063-42.322Z" fill="#ffd150" fill-rule="evenodd"/><path d="M606.326,5941.7c-6.657,3.48-9.813,31.327-17.759,38.3-4.5,3.951-6.5,7.561-15.673,12.137-2.41,4.952,4.13,8.041,4.13,8.041,18.307-6.93,22.493-12.9,28.61-22.14,7.579-11.45,14.593-39.511.692-36.338Z" fill="#ffd150" fill-rule="evenodd"/><path d="M576.649,5999.16a33.727,33.727,0,0,1-3.595,4.364c-1.585,1.807-4.113,4.907-4.9,4.141s.72-3.84.72-3.84-4.7,4.457-5.538,5.961-.359-2.829.843-4.816c-3.009,4.574-3.726,5.6-3.971,4.455s2.253-7.345,1.909-6.742c-3.478,5.236-4.8,5.958-4.44,3.55s3.733-6.5,5.78-7.644c-6.02,3.911-6.443,3.491-4.937,1.743s7.085-6.018,14.53-7.043c4.738,4.457,3.595,5.871,3.595,5.871Z" fill="#ffc8ae" fill-rule="evenodd"/><path d="M572.641,6008.779c1.954-3.022,4.771-6.478,8.378-7.466a13.64,13.64,0,0,1,7.665.638c1.988.637,4.827.922,6.755,1.8a17.078,17.078,0,0,1,1.383,6.413,6.413,6.413,0,0,1-1.329.294c-2.058.231-4.245.986-6.316.923-1.407-.043-3.642.394-4.927.022.524.153,1.144.406,1.222.945a.972.972,0,0,1-.77.989c-3.071.8-5.777-2.941-7.665-4.677.189.175-6.925,4.035-4.4.119Z" fill="#ffc8ae" fill-rule="evenodd"/><path d="M604.925,5911.145a5.746,5.746,0,0,0-.412.94c-.562,1.654-.173,3.64-.573,5.359-.638,2.749-2.581,4.9-3.5,7.563-3.372,9.735,6.308,15.185,14.7,14.478a7.935,7.935,0,0,0,4.253-1.379c4.07-3.145-.527-8.089-2.449-10.99-1.339-2.016-3.222-4.725-3.378-7.226-.145-2.327,1.1-4.355.627-6.85-.912-4.854-7.053-5.916-9.265-1.9Z" fill="#56538e" fill-rule="evenodd"/><path d="M629.958,5930.851s-2.758,9.58,3.558,13.586c.188,2.325-6.43,12.23-13.08,10.543-3.875-.981-5.859-6.519-5.859-6.519a107.435,107.435,0,0,1,2.36-10.732l13.021-6.878Z" fill="#ffc8ae" fill-rule="evenodd"/><path d="M607.541,5911.4s-1.718,6.065-1.07,10.779,1.072,14.1,5.25,17.107,10.164-.484,14.13-3.85a23.555,23.555,0,0,0,8.261-17.087c.094-7.513-2.844-16.715-13.673-16.244s-12.9,9.295-12.9,9.295Z" fill="#ffc8ae" fill-rule="evenodd"/><path d="M615.122,5906.809c-2.8,3.432-1.475,7.636,1.99,10.166,2.393,1.75,4.494,2.855,6.079,5.544a18.206,18.206,0,0,1,2.44,8.259c.119,2.4.143,4.766.259,7.148.056,1.1.121,2.616,1.3,2.923,1.391.361,4.161-.673,5.4-1.379a19.727,19.727,0,0,0,5.2-4.473,20.624,20.624,0,0,0,4.889-12.361c.3-8.381-4.481-13.8-10.567-18.676-6.206-4.974-12.006-3.242-16.985,2.849Z" fill="#56538e" fill-rule="evenodd"/><path d="M611.427,5902.611c.022-.017.044-.032.069-.048,2.112-1.42,10.7-4.085,10.739.295s-6.392,8.765-9.787,10.714a36.14,36.14,0,0,0-4.408,2.588c-1.77,1.379-1.921,4-3.484,5.192-2.38-2.289-1.773-7.931-.817-10.748,1.266-3.728,4.548-5.857,7.688-7.993Z" fill="#56538e" fill-rule="evenodd"/><path d="M616.254,5940.379c4.425-.376,9.264-4.666,9.264-4.666s-1.013,5.153-9.828,7l.564-2.335Z" fill="#ffae91" fill-rule="evenodd"/><path d="M742.236,6198.915c-4.281,6.653-3.283,11.38-2.073,11.91,25.37,11.3,41.154,7.855,45.021,6.55-4.194-5.849-8.179-11.487-12.917-17.88-12.427,2.291-30.031-.58-30.031-.58Z" fill="#56538e"/><path d="M668.615,6018.355l-.078,27.979-50.8,29.52.078-27.979,50.8-29.52Z" fill="#87d8ef"/><path d="M440.081,6047.885,440,6075.864l-51.131-29.52.08-27.979,51.129,29.52Z" fill="#c2e9f4"/><path d="M572.047,6086.767l.08-27.981c.01-3.95,2.606-7.9,7.792-10.91,10.425-6.058,27.408-6.058,37.9,0l-.078,27.979c-10.49-6.058-27.475-6.058-37.9,0-5.186,3.015-7.782,6.962-7.794,10.912Z" fill="#00c6e6"/><path d="M485.908,6058.937l-.078,27.981c.009-4-2.631-8.009-7.916-11.063-10.505-6.065-27.475-6.058-37.911.009l.078-27.979c10.436-6.067,27.406-6.074,37.913-.009,5.285,3.053,7.925,7.06,7.914,11.061Z" fill="#87d8ef"/><path d="M529.233,6099.356l-.08,27.979-51.116-29.511.08-27.979,51.116,29.511Z" fill="#c2e9f4"/><path d="M580.031,6069.836l-.08,27.979-50.8,29.52.08-27.979,50.8-29.52Z" fill="#87d8ef"/><path d="M668.615,6018.356l-50.8,29.52c-10.49-6.058-27.473-6.058-37.9,0s-10.38,15.9.112,21.961l-50.8,29.52-51.116-29.511c10.436-6.067,10.382-15.9-.123-21.97s-27.477-6.058-37.913.009l-51.129-29.52,139.382-81,140.281,80.992Z" fill="#aee1f4"/><path d="M443.63,6083.507l-.08,27.981c-.011,3.949-2.608,7.892-7.792,10.905l.078-27.979c5.186-3.013,7.783-6.956,7.794-10.907Z" fill="#f46868"/><path d="M486.954,6123.925l-.08,27.981-50.783,29.513.078-27.979,50.785-29.514Z" fill="#f46868"/><path d="M390.39,6192.325l.08-27.981c.011-3.945,2.605-7.885,7.788-10.9,10.436-6.065,27.419-6.065,37.911-.008l-.078,27.979c-10.494-6.057-27.477-6.057-37.913.01-5.183,3.011-7.775,6.95-7.788,10.9Z" fill="#f24b4b"/><path d="M398.381,6175.4l-.08,27.981-50.8,29.52.078-27.979,50.8-29.521Z" fill="#f46868"/><path d="M347.583,6204.92,347.5,6232.9l-140.281-80.994.08-27.979,140.279,80.993Z" fill="#ff9898"/><path d="M435.713,6072.446c10.5,6.066,10.563,15.9.123,21.968l51.118,29.511-50.785,29.514c-10.492-6.057-27.475-6.057-37.911.008s-10.369,15.9.123,21.951l-50.8,29.522L207.3,6123.927l139.367-80.992,51.131,29.52c10.436-6.067,27.406-6.074,37.911-.009Z" fill="#ff827e"/><path d="M614.6,6111.337l.08-27.979c-.011,4,2.625,8,7.909,11.049l-.08,27.979c-5.283-3.05-7.92-7.053-7.909-11.049Z" fill="#6a81f7"/><path d="M622.918,6153.447l-.078,27.979L571.709,6151.9l.08-27.979,51.129,29.522Z" fill="#6a81f7"/><path d="M668.747,6164.5l-.078,27.979c.009-4-2.628-8-7.905-11.048-10.505-6.067-27.488-6.065-37.924,0l.078-27.979c10.438-6.067,27.421-6.067,37.924,0,5.279,3.044,7.916,7.051,7.905,11.048Z" fill="#3d5ded"/><path d="M712.085,6204.926,712,6232.9l-51.131-29.518.08-27.981,51.131,29.52Z" fill="#6a81f7"/><path d="M851.467,6123.925l-.08,27.979L712,6232.9l.08-27.979,139.382-81Z" fill="#3d5ded"/><path d="M851.467,6123.925l-139.382,81-51.131-29.52c10.436-6.065,10.382-15.9-.112-21.959s-27.486-6.067-37.924,0l-51.129-29.522,50.8-29.518c-10.507-6.067-10.548-15.9-.112-21.961s27.393-6.067,37.9,0l50.8-29.52,140.3,81Z" fill="#5b6bf4"/><path d="M626.469,6189.065l-.08,27.979c-.012,3.951-2.608,7.9-7.794,10.913l.078-27.981c5.188-3.015,7.784-6.96,7.8-10.911Z" fill="#ffbc2d"/><path d="M432.942,6216.9l.08-27.979c-.011,4,2.628,8,7.915,11.054l-.078,27.979c-5.287-3.054-7.928-7.056-7.917-11.054Z" fill="#ffdc80"/><path d="M480.407,6320.281s1.372.471,4.6,1.822,10.179,1.807,14.51,1.119,10.3-1.66,9.154-3.242-22.976-7.044-23.893-6.612-4.368,6.913-4.368,6.913Z" fill="#ffae90" fill-rule="evenodd"/><path d="M530.435,6310.487l-.08,27.979-140.294-81,.08-27.979,140.294,81Z" fill="#ffdc80"/><path d="M669.8,6229.5l-.078,27.979-139.371,80.992.08-27.979L669.8,6229.5Z" fill="#ffbc2d"/><path d="M618.565,6178.017c10.49,6.057,10.548,15.894.108,21.959L669.8,6229.5l-139.369,80.991-140.294-81,50.8-29.518c-10.505-6.067-10.561-15.889-.125-21.953s27.408-6.075,37.913-.008l50.783-29.514,51.131,29.522c10.436-6.067,27.419-6.067,37.926,0Z" fill="#ffd150"/><path d="M530.733,6223.537l-.008,2.91c-.005,2.3-1.516,4.593-4.531,6.342-6.07,3.529-15.954,3.529-22.075,0-3.076-1.775-4.611-4.107-4.6-6.435l.01-2.909c-.008,2.328,1.528,4.66,4.6,6.433,6.12,3.534,16,3.534,22.074.008,3.015-1.753,4.524-4.046,4.53-6.344Z" fill="#9eb7c7"/><path d="M526.119,6217.094c6.121,3.532,6.155,9.259.084,12.787s-15.954,3.526-22.074-.008-6.143-9.252-.073-12.779,15.954-3.528,22.063,0Z" fill="#afc7d4"/><path d="M551.931,6128.893a3.573,3.573,0,0,0-3.6.352l-77.841,44.942a11.139,11.139,0,0,0-5.054,8.757l.121,58.188a3.543,3.543,0,0,0,1.476,3.242l5.034,2.925a3.536,3.536,0,0,1-1.476-3.241l-.123-58.19a11.138,11.138,0,0,1,5.054-8.756l77.843-44.942a3.561,3.561,0,0,1,3.6-.349l-5.033-2.928Z" fill="#afc7d4"/><path d="M553.367,6132.17c2.793-1.611,5.068-.316,5.077,2.907l.123,58.188a11.136,11.136,0,0,1-5.043,8.737l-77.843,44.942c-2.8,1.619-5.079.322-5.088-2.886l-.123-58.19a11.138,11.138,0,0,1,5.054-8.756l77.843-44.942Z" fill="#9eb7c7"/><path d="M554.9,6146.611l-.022-11.186-2.162,1.249-4.708,2.717-62.667,36.18-11.294,6.522v3.767l.054,27.635.048,23.059,49.6-28.638,7.727-4.46,23.515-13.576-.091-43.269Z" fill="#858cf3"/><path d="M485.337,6175.569l-11.2,6.467.007,3.534,80.737-46.615-.007-3.532-69.536,40.146Z" fill="#5b6bf4"/><path d="M483.558,6190.031a5.633,5.633,0,0,1-2.55,4.416c-1.41.813-2.551.154-2.551-1.472a5.634,5.634,0,0,1,2.551-4.418c1.409-.813,2.55-.153,2.55,1.474Z" fill="#5b6bf4"/><path d="M483.558,6199a5.632,5.632,0,0,1-2.55,4.418c-1.41.815-2.551.155-2.551-1.472a5.637,5.637,0,0,1,2.551-4.418c1.409-.811,2.55-.154,2.55,1.472Z" fill="#ff827e"/><path d="M483.558,6207.875a5.636,5.636,0,0,1-2.55,4.418c-1.41.813-2.551.155-2.551-1.472a5.637,5.637,0,0,1,2.551-4.418c1.409-.813,2.55-.154,2.55,1.472Z" fill="#ffd150"/><path d="M483.219,6237.455a4.042,4.042,0,0,1-1.829,3.169c-1.011.584-1.831.112-1.831-1.055a4.042,4.042,0,0,1,1.831-3.171c1.01-.584,1.829-.112,1.829,1.057Z" fill="#ff827e"/><path d="M586.695,6239.71l-24.925-14.389,33.182-19.159,24.925,14.389-33.182,19.158Z" fill="#56538e"/><path d="M586.695,6240.81v-1.1l33.182-19.158v1.1l-33.182,19.158Z" fill="#002745"/><path d="M586.695,6239.71v1.1l-24.925-14.391v-1.1l24.925,14.389Z" fill="#002745"/><path d="M497.787,6257.166l.006,2.142,24.337,14.145-.006-2.142-24.337-14.145Z" fill="#c7d9e2"/><path d="M522.124,6271.311l.006,2.142,53.87-31.1-.005-2.142-53.87,31.1Z" fill="#9eb7c7"/><path d="M497.787,6257.166l24.337,14.145,53.87-31.1-24.337-14.143-53.87,31.1Z" fill="#afc7d4"/><path d="M548.365,6229.626l0,1.07,3.368,1.958,0-1.072-3.368-1.956Z" fill="#c7d9e2"/><path d="M551.733,6231.582l0,1.072,3.322-1.919,0-1.07-3.322,1.917Z" fill="#9eb7c7"/><path d="M548.365,6229.626l3.368,1.956,3.322-1.917-3.368-1.958-3.322,1.919Z" fill="#afc7d4"/><path d="M544.1,6232.086l0,1.072,3.368,1.956,0-1.072-3.368-1.956Z" fill="#c7d9e2"/><path d="M547.472,6234.042l0,1.072,3.322-1.918,0-1.07-3.322,1.917Z" fill="#9eb7c7"/><path d="M544.1,6232.086l3.368,1.956,3.322-1.917-3.368-1.958-3.322,1.918Z" fill="#afc7d4"/><path d="M539.851,6234.542l0,1.07,3.366,1.958,0-1.072-3.366-1.956Z" fill="#c7d9e2"/><path d="M543.218,6236.5l0,1.072,3.324-1.918,0-1.072-3.324,1.919Z" fill="#9eb7c7"/><path d="M539.851,6234.542l3.366,1.956,3.324-1.919-3.368-1.958-3.322,1.92Z" fill="#afc7d4"/><path d="M535.6,6237l0,1.07,3.366,1.958,0-1.07L535.6,6237Z" fill="#c7d9e2"/><path d="M538.964,6238.955l0,1.07,3.322-1.917,0-1.072-3.322,1.918Z" fill="#9eb7c7"/><path d="M535.6,6237l3.366,1.958,3.322-1.918-3.366-1.956L535.6,6237Z" fill="#afc7d4"/><path d="M531.336,6239.457l0,1.072,3.366,1.956,0-1.07-3.367-1.958Z" fill="#c7d9e2"/><path d="M534.7,6241.415l0,1.07,3.322-1.917,0-1.072-3.322,1.919Z" fill="#9eb7c7"/><path d="M531.336,6239.457l3.367,1.958,3.322-1.919-3.366-1.956-3.322,1.917Z" fill="#afc7d4"/><path d="M527.083,6241.914l0,1.072,3.366,1.956,0-1.072-3.365-1.956Z" fill="#c7d9e2"/><path d="M530.448,6243.87l0,1.072,3.322-1.918,0-1.07-3.322,1.917Z" fill="#9eb7c7"/><path d="M527.083,6241.914l3.365,1.956,3.322-1.917L530.405,6240l-3.322,1.918Z" fill="#afc7d4"/><path d="M522.827,6244.37l0,1.07,3.368,1.958,0-1.072-3.368-1.956Z" fill="#c7d9e2"/><path d="M526.2,6246.326l0,1.072,3.322-1.919,0-1.072-3.322,1.919Z" fill="#9eb7c7"/><path d="M522.827,6244.37l3.368,1.956,3.322-1.919-3.366-1.956-3.324,1.918Z" fill="#afc7d4"/><path d="M518.566,6246.83l0,1.07,3.368,1.958,0-1.072-3.368-1.956Z" fill="#c7d9e2"/><path d="M521.934,6248.786l0,1.072,3.329-1.922,0-1.072-3.329,1.922Z" fill="#9eb7c7"/><path d="M518.566,6246.83l3.368,1.956,3.329-1.922-3.366-1.956-3.331,1.922Z" fill="#afc7d4"/><path d="M514.312,6249.287l0,1.07,3.368,1.958,0-1.072-3.368-1.956Z" fill="#c7d9e2"/><path d="M517.68,6251.243l0,1.072,3.322-1.918,0-1.072-3.322,1.919Z" fill="#9eb7c7"/><path d="M514.312,6249.287l3.368,1.956,3.322-1.919-3.366-1.958-3.324,1.92Z" fill="#afc7d4"/><path d="M510.06,6251.741l0,1.072,3.366,1.956,0-1.07-3.368-1.958Z" fill="#c7d9e2"/><path d="M513.428,6253.7l0,1.07,3.324-1.917,0-1.074-3.322,1.921Z" fill="#9eb7c7"/><path d="M510.06,6251.741l3.368,1.958,3.322-1.921-3.368-1.954-3.322,1.917Z" fill="#afc7d4"/><path d="M501.544,6256.658l0,1.072,3.366,1.956,0-1.072-3.366-1.956Z" fill="#c7d9e2"/><path d="M504.91,6258.614l0,1.072,7.585-4.379,0-1.07-7.585,4.377Z" fill="#9eb7c7"/><path d="M501.544,6256.658l3.366,1.956,7.585-4.377-3.366-1.958-7.585,4.378Z" fill="#afc7d4"/><path d="M548.4,6234.58l0,1.072,3.366,1.956,0-1.07-3.367-1.958Z" fill="#c7d9e2"/><path d="M551.763,6236.538l0,1.07,7.583-4.377,0-1.074-7.583,4.381Z" fill="#9eb7c7"/><path d="M548.4,6234.58l3.367,1.958,7.583-4.381-3.366-1.954-7.583,4.377Z" fill="#afc7d4"/><path d="M544.144,6237.036v1.072l3.368,1.958,0-1.074-3.366-1.956Z" fill="#c7d9e2"/><path d="M547.511,6238.992l0,1.074,3.322-1.92,0-1.07-3.322,1.917Z" fill="#9eb7c7"/><path d="M544.144,6237.036l3.366,1.956,3.322-1.917-3.366-1.958-3.322,1.918Z" fill="#afc7d4"/><path d="M539.889,6239.493l0,1.07,3.368,1.958,0-1.072-3.368-1.956Z" fill="#c7d9e2"/><path d="M543.257,6241.448l0,1.072,3.322-1.919,0-1.072-3.322,1.918Z" fill="#9eb7c7"/><path d="M539.889,6239.493l3.368,1.956,3.322-1.918-3.366-1.956-3.324,1.919Z" fill="#afc7d4"/><path d="M535.627,6241.953l0,1.07L539,6244.98l0-1.072-3.368-1.956Z" fill="#c7d9e2"/><path d="M539,6243.909l0,1.072,3.322-1.918,0-1.07L539,6243.909Z" fill="#9eb7c7"/><path d="M535.627,6241.953l3.368,1.956,3.322-1.917-3.368-1.958-3.322,1.918Z" fill="#afc7d4"/><path d="M531.375,6244.407l0,1.072,3.368,1.956,0-1.07-3.367-1.958Z" fill="#c7d9e2"/><path d="M534.741,6246.365l0,1.07,3.322-1.917,0-1.072-3.324,1.919Z" fill="#9eb7c7"/><path d="M531.375,6244.407l3.367,1.958,3.324-1.919-3.368-1.958-3.322,1.918Z" fill="#afc7d4"/><path d="M527.121,6246.864l0,1.072,3.368,1.956,0-1.07-3.368-1.958Z" fill="#c7d9e2"/><path d="M530.489,6248.821l0,1.07,3.322-1.917,0-1.072-3.322,1.918Z" fill="#9eb7c7"/><path d="M527.121,6246.864l3.368,1.958,3.322-1.918-3.368-1.956-3.322,1.917Z" fill="#afc7d4"/><path d="M522.859,6249.324l0,1.072,3.366,1.956,0-1.07-3.368-1.958Z" fill="#c7d9e2"/><path d="M526.227,6251.282l0,1.07,3.331-1.922,0-1.07-3.331,1.922Z" fill="#9eb7c7"/><path d="M522.859,6249.324l3.368,1.958,3.331-1.922-3.368-1.958-3.331,1.922Z" fill="#afc7d4"/><path d="M518.6,6251.78l0,1.072,3.366,1.956,0-1.072-3.366-1.956Z" fill="#c7d9e2"/><path d="M521.971,6253.736l0,1.072,3.324-1.918,0-1.07-3.324,1.917Z" fill="#9eb7c7"/><path d="M518.6,6251.78l3.366,1.956,3.324-1.917-3.368-1.958-3.322,1.918Z" fill="#afc7d4"/><path d="M514.353,6254.237l0,1.07,3.365,1.958,0-1.072-3.366-1.956Z" fill="#c7d9e2"/><path d="M517.719,6256.193l0,1.072,3.324-1.919,0-1.072-3.322,1.919Z" fill="#9eb7c7"/><path d="M514.353,6254.237l3.366,1.956,3.322-1.919-3.366-1.958-3.322,1.92Z" fill="#afc7d4"/><path d="M510.091,6256.7l0,1.07,3.365,1.958,0-1.07-3.366-1.958Z" fill="#c7d9e2"/><path d="M513.458,6258.655l0,1.07,3.331-1.922,0-1.072-3.329,1.924Z" fill="#9eb7c7"/><path d="M510.091,6256.7l3.366,1.958,3.329-1.924-3.365-1.956-3.331,1.922Z" fill="#afc7d4"/><path d="M505.837,6259.151l0,1.072,3.368,1.956,0-1.07-3.366-1.958Z" fill="#c7d9e2"/><path d="M509.2,6261.109l0,1.07,3.322-1.917,0-1.072-3.322,1.919Z" fill="#9eb7c7"/><path d="M505.837,6259.151l3.366,1.958,3.322-1.919-3.366-1.956-3.322,1.917Z" fill="#afc7d4"/><path d="M552.688,6237.075l0,1.07,3.368,1.958,0-1.07-3.368-1.958Z" fill="#c7d9e2"/><path d="M556.056,6239.033l0,1.07,7.583-4.379,0-1.072-7.583,4.38Z" fill="#9eb7c7"/><path d="M552.688,6237.075l3.368,1.958,7.583-4.38-3.368-1.956-7.583,4.379Z" fill="#afc7d4"/><path d="M548.436,6239.53l0,1.072,3.368,1.956,0-1.07-3.368-1.958Z" fill="#c7d9e2"/><path d="M551.8,6241.488l0,1.07,3.322-1.917,0-1.072-3.322,1.919Z" fill="#9eb7c7"/><path d="M548.436,6239.53l3.368,1.958,3.322-1.919-3.368-1.956-3.322,1.917Z" fill="#afc7d4"/><path d="M544.182,6241.986l0,1.072,3.368,1.956,0-1.072-3.368-1.956Z" fill="#c7d9e2"/><path d="M547.55,6243.942l0,1.072,3.322-1.919,0-1.07-3.322,1.917Z" fill="#9eb7c7"/><path d="M544.182,6241.986l3.368,1.956,3.322-1.917-3.368-1.958-3.322,1.918Z" fill="#afc7d4"/><path d="M539.92,6244.446l0,1.072,3.366,1.956,0-1.07-3.368-1.958Z" fill="#c7d9e2"/><path d="M543.288,6246.4l0,1.07,3.324-1.917,0-1.072-3.322,1.919Z" fill="#9eb7c7"/><path d="M539.92,6244.446l3.368,1.958,3.322-1.919-3.368-1.956-3.322,1.917Z" fill="#afc7d4"/><path d="M535.668,6246.9l0,1.072,3.366,1.956,0-1.072-3.365-1.956Z" fill="#c7d9e2"/><path d="M539.033,6248.859l0,1.072,3.324-1.918,0-1.07-3.324,1.917Z" fill="#9eb7c7"/><path d="M535.668,6246.9l3.365,1.956,3.324-1.917-3.366-1.958-3.322,1.918Z" fill="#afc7d4"/><path d="M531.414,6249.359l0,1.07,3.366,1.958,0-1.072-3.366-1.956Z" fill="#c7d9e2"/><path d="M534.78,6251.315l0,1.072,3.322-1.919,0-1.072-3.322,1.918Z" fill="#9eb7c7"/><path d="M531.414,6249.359l3.366,1.956,3.322-1.918-3.366-1.958-3.322,1.92Z" fill="#afc7d4"/><path d="M527.152,6251.819l0,1.07,3.368,1.958,0-1.07-3.366-1.958Z" fill="#c7d9e2"/><path d="M530.519,6253.777l0,1.07,3.329-1.922,0-1.074-3.329,1.926Z" fill="#9eb7c7"/><path d="M527.152,6251.819l3.366,1.958,3.329-1.926-3.365-1.954-3.331,1.922Z" fill="#afc7d4"/><path d="M522.9,6254.274l0,1.072,3.368,1.956,0-1.07-3.366-1.958Z" fill="#c7d9e2"/><path d="M526.265,6256.232l0,1.07,3.322-1.917,0-1.072-3.322,1.919Z" fill="#9eb7c7"/><path d="M522.9,6254.274l3.366,1.958,3.322-1.919-3.365-1.956-3.324,1.917Z" fill="#afc7d4"/><path d="M518.644,6256.73l0,1.072,3.368,1.958,0-1.074-3.368-1.956Z" fill="#c7d9e2"/><path d="M522.012,6258.687l0,1.074,3.322-1.92,0-1.07-3.322,1.917Z" fill="#9eb7c7"/><path d="M518.644,6256.73l3.368,1.956,3.322-1.917-3.366-1.958-3.324,1.918Z" fill="#afc7d4"/><path d="M510.128,6261.647l0,1.07,3.368,1.958,0-1.072-3.368-1.956Z" fill="#c7d9e2"/><path d="M513.5,6263.6l0,1.072,7.583-4.379,0-1.072L513.5,6263.6Z" fill="#9eb7c7"/><path d="M510.128,6261.647l3.368,1.956,7.583-4.379-3.368-1.956-7.583,4.378Z" fill="#afc7d4"/><path d="M552.736,6242.029l0,1.072,3.366,1.958,0-1.072-3.366-1.958Z" fill="#c7d9e2"/><path d="M556.1,6243.987l0,1.072,11.839-6.835,0-1.072-11.839,6.835Z" fill="#9eb7c7"/><path d="M552.736,6242.029l3.366,1.958,11.839-6.835-3.368-1.956-11.837,6.833Z" fill="#afc7d4"/><path d="M548.484,6244.485l0,1.072,3.367,1.956,0-1.072-3.366-1.956Z" fill="#c7d9e2"/><path d="M551.851,6246.441l0,1.072,3.322-1.918,0-1.07-3.322,1.917Z" fill="#9eb7c7"/><path d="M548.484,6244.485l3.366,1.956,3.322-1.917-3.366-1.958-3.322,1.918Z" fill="#afc7d4"/><path d="M544.221,6246.948l0,1.07,3.368,1.958,0-1.072-3.366-1.956Z" fill="#c7d9e2"/><path d="M547.587,6248.9l0,1.072,3.322-1.92,0-1.07-3.324,1.918Z" fill="#9eb7c7"/><path d="M544.221,6246.948l3.366,1.956,3.324-1.918-3.366-1.958-3.324,1.921Z" fill="#afc7d4"/><path d="M539.967,6249.4l0,1.07,3.368,1.958,0-1.07-3.368-1.958Z" fill="#c7d9e2"/><path d="M543.335,6251.36l0,1.07,3.322-1.917,0-1.072-3.322,1.918Z" fill="#9eb7c7"/><path d="M539.967,6249.4l3.368,1.958,3.322-1.918-3.366-1.956-3.324,1.917Z" fill="#afc7d4"/><path d="M535.714,6251.856l0,1.074,3.368,1.954,0-1.07-3.366-1.958Z" fill="#c7d9e2"/><path d="M539.081,6253.814l0,1.07,3.322-1.917,0-1.07-3.324,1.917Z" fill="#9eb7c7"/><path d="M535.714,6251.856l3.366,1.958,3.324-1.917-3.368-1.958-3.322,1.917Z" fill="#afc7d4"/><path d="M531.453,6254.319l0,1.07,3.368,1.958,0-1.072-3.366-1.956Z" fill="#c7d9e2"/><path d="M534.819,6256.274l0,1.072,3.331-1.924,0-1.07-3.331,1.922Z" fill="#9eb7c7"/><path d="M531.453,6254.319l3.366,1.956,3.331-1.922-3.368-1.958-3.329,1.924Z" fill="#afc7d4"/><path d="M527.2,6256.773l0,1.072,3.366,1.958,0-1.072-3.368-1.958Z" fill="#c7d9e2"/><path d="M530.567,6258.731l0,1.072,3.324-1.918,0-1.07-3.322,1.917Z" fill="#9eb7c7"/><path d="M527.2,6256.773l3.368,1.958,3.322-1.917-3.368-1.958-3.322,1.917Z" fill="#afc7d4"/><path d="M522.945,6259.229l0,1.072,3.366,1.956,0-1.07-3.366-1.958Z" fill="#c7d9e2"/><path d="M526.311,6261.188l0,1.07,3.324-1.918,0-1.07-3.324,1.919Z" fill="#9eb7c7"/><path d="M522.945,6259.229l3.366,1.958,3.324-1.919-3.366-1.958-3.324,1.918Z" fill="#afc7d4"/><path d="M514.431,6264.146l0,1.07,3.366,1.958,0-1.07-3.366-1.958Z" fill="#c7d9e2"/><path d="M517.8,6266.1l0,1.07,7.585-4.378,0-1.072L517.8,6266.1Z" fill="#9eb7c7"/><path d="M514.431,6264.146l3.366,1.958,7.583-4.381-3.366-1.956-7.583,4.379Z" fill="#afc7d4"/><path d="M565.545,6239.608l0,1.072,3.366,1.956,0-1.072-3.367-1.956Z" fill="#c7d9e2"/><path d="M568.912,6241.564l0,1.072,3.322-1.918,0-1.07-3.322,1.917Z" fill="#9eb7c7"/><path d="M565.545,6239.608l3.367,1.956,3.322-1.917-3.367-1.958-3.322,1.918Z" fill="#afc7d4"/><path d="M561.282,6242.07l0,1.07,3.368,1.958,0-1.074-3.368-1.954Z" fill="#c7d9e2"/><path d="M564.65,6244.024l0,1.074,3.322-1.92,0-1.07-3.322,1.917Z" fill="#9eb7c7"/><path d="M561.282,6242.07l3.368,1.954,3.322-1.917-3.366-1.958-3.324,1.92Z" fill="#afc7d4"/><path d="M557.028,6244.524l0,1.07,3.368,1.958,0-1.07-3.368-1.958Z" fill="#c7d9e2"/><path d="M560.4,6246.482l0,1.07,3.322-1.917,0-1.074-3.322,1.92Z" fill="#9eb7c7"/><path d="M557.028,6244.524l3.368,1.958,3.322-1.92-3.368-1.956-3.322,1.918Z" fill="#afc7d4"/><path d="M535.744,6256.814l0,1.07,3.366,1.956,0-1.07-3.366-1.956Z" fill="#c7d9e2"/><path d="M539.111,6258.77l0,1.07,20.353-11.75,0-1.07-20.355,11.75Z" fill="#9eb7c7"/><path d="M535.744,6256.814l3.366,1.956,20.355-11.75-3.368-1.958-20.353,11.752Z" fill="#afc7d4"/><path d="M531.492,6259.269l0,1.07,3.367,1.958,0-1.07-3.366-1.958Z" fill="#c7d9e2"/><path d="M534.858,6261.227l0,1.07,3.322-1.917,0-1.074-3.322,1.92Z" fill="#9eb7c7"/><path d="M531.492,6259.269l3.366,1.958,3.322-1.92-3.366-1.954-3.322,1.917Z" fill="#afc7d4"/><path d="M527.238,6261.723l0,1.072,3.368,1.958,0-1.072-3.367-1.958Z" fill="#c7d9e2"/><path d="M530.6,6263.681l0,1.072,3.322-1.918,0-1.07-3.322,1.917Z" fill="#9eb7c7"/><path d="M527.238,6261.723l3.367,1.958,3.322-1.917-3.365-1.958-3.324,1.917Z" fill="#afc7d4"/><path d="M518.722,6266.642l0,1.07,3.366,1.958,0-1.072-3.368-1.956Z" fill="#c7d9e2"/><path d="M522.091,6268.6l0,1.072,7.585-4.38,0-1.07-7.583,4.379Z" fill="#9eb7c7"/><path d="M518.722,6266.642l3.368,1.956,7.583-4.379-3.366-1.958-7.585,4.38Z" fill="#afc7d4"/><path d="M531.723,6170.573l.048,16.9,14.711-8.5-.046-16.9-14.713,8.5Z" fill="#5b6bf4"/><path d="M517.674,6185.042l0,.67,10.669-6.16,0-.67-10.669,6.16Z" fill="#afc7d4"/><path d="M517.667,6182.926l0,.672,10.671-6.16,0-.672-10.669,6.16Z" fill="#afc7d4"/><path d="M517.661,6180.808l0,.675,10.669-6.162,0-.673-10.669,6.16Z" fill="#afc7d4"/><path d="M517.656,6178.694l0,.67,10.669-6.16v-.672l-10.671,6.162Z" fill="#afc7d4"/><path d="M517.686,6189.275l0,.671,10.669-6.161,0-.67-10.669,6.16Z" fill="#afc7d4"/><path d="M517.68,6187.156l0,.675,10.669-6.16,0-.675-10.669,6.16Z" fill="#afc7d4"/><path d="M520.4,6189.828l0,.671,7.965-4.6,0-.67-7.965,4.6Z" fill="#afc7d4"/><path d="M544.36,6156.419a1.114,1.114,0,0,0-.508.878c0,.322.231.452.512.29a1.125,1.125,0,0,0,.51-.878c0-.328-.231-.454-.514-.29Z" fill="#ffd150"/><path d="M548.475,6155.215a1.113,1.113,0,0,0,.506-.879c0-.325-.227-.454-.51-.29a1.116,1.116,0,0,0-.508.878c0,.32.231.452.512.291m-4.111,2.372a1.125,1.125,0,0,0,.51-.878c0-.328-.231-.454-.514-.29a1.114,1.114,0,0,0-.508.878c0,.322.231.452.512.29m2.055-1.187a1.118,1.118,0,0,0,.511-.878c0-.328-.23-.453-.515-.289a1.114,1.114,0,0,0-.506.877c0,.322.23.452.51.29m2.579-3.59c.539-.311.977-.061.979.558l.013,4.6c0-.57-.4-.8-.894-.514l-33.876,19.558a1.97,1.97,0,0,0-.89,1.543l-.013-4.6a2.15,2.15,0,0,1,.972-1.684L549,6152.81Z" fill="#afc7d4"/><path d="M520.4,6190.5l7.965-4.6,0-.669-7.965,4.6,0,.672m-2.723-4.788,10.669-6.16,0-.67-10.669,6.16,0,.67m.012,4.235,10.668-6.162,0-.67-10.668,6.16,0,.672m-.03-10.583,10.669-6.16v-.672l-10.671,6.162,0,.67m.011,4.233,10.671-6.159,0-.672-10.669,6.16,0,.671m-.006-2.114,10.669-6.161,0-.674-10.669,6.16,0,.675m.019,6.348,10.669-6.16,0-.675-10.669,6.16,0,.675m14.089-.353,14.711-8.5-.047-16.9-14.712,8.5.048,16.9m17.325-30.021c.492-.283.892-.056.894.514l.063,22.13a1.963,1.963,0,0,1-.888,1.543l-33.876,19.56c-.493.283-.893.05-.9-.516l-.064-22.13a1.97,1.97,0,0,1,.89-1.543l33.876-19.558Z" fill="#aee1f4"/><path d="M548.471,6154.046a1.116,1.116,0,0,0-.508.878c0,.32.231.452.512.291a1.113,1.113,0,0,0,.506-.879c0-.325-.227-.454-.51-.29Z" fill="#ff827e"/><path d="M546.415,6155.233a1.114,1.114,0,0,0-.506.877c0,.322.23.452.51.29a1.118,1.118,0,0,0,.511-.878c0-.328-.23-.453-.515-.289Z" fill="#5b6bf4"/><path d="M603.274,6225.163c.032.147-.089.267-.179.356-.089.058-6.88,3.915-6.88,3.915l-1.157-.742c1.9-1.068,5.845-3.233,8.127-4.509a5.5,5.5,0,0,1,.089.98Z" fill="#9eb7c7"/><path d="M603.185,6224.183c-2.282,1.276-6.229,3.441-8.127,4.509L581,6219.735q1.827-1.025,3.65-2.047c2.313-1.275,4.8-2.966,7.444-3.292a11.019,11.019,0,0,1,11.093,9.787Z" fill="#eee"/><path d="M595.773,6229.432a.485.485,0,0,0,.712-.446,9.76,9.76,0,0,0-5.663-8.812c-1.628-.926-6.563-2.9-10.147-.219a.48.48,0,0,0,.044.789c5.423,3.206,12.738,7.375,15.054,8.688Z" fill="#c7d9e2"/><path d="M400,6124.243l-2.388,1.386a1.672,1.672,0,0,0,.7-1.537l2.388-1.388a1.682,1.682,0,0,1-.7,1.539Z" fill="#9eb7c7"/><path d="M329.7,6028.317l2.387-1.388a1.7,1.7,0,0,1,1.71.171l-2.387,1.387a1.694,1.694,0,0,0-1.71-.17Z" fill="#9eb7c7"/><path d="M398.448,6069.956l2.388-1.388L400.7,6122.7l-2.388,1.388.134-54.137Z" fill="#9eb7c7"/><path d="M331.408,6028.486l2.388-1.386,64.647,37.323-2.389,1.389-64.645-37.325Z" fill="#9eb7c7"/><path d="M396.053,6065.811l2.389-1.388a5.281,5.281,0,0,1,2.394,4.144l-2.388,1.389a5.282,5.282,0,0,0-2.395-4.145Z" fill="#9eb7c7"/><path d="M396.053,6065.811a5.282,5.282,0,0,1,2.395,4.145l-.134,54.136c-.006,1.528-1.091,2.135-2.41,1.372l-64.645-37.323a5.25,5.25,0,0,1-2.393-4.146l.132-54.137c.005-1.528,1.079-2.14,2.41-1.371l64.645,37.324Z" fill="#002745"/><path d="M331.391,6033.93l-.117,48.766,64.645,37.325.121-48.768-64.649-37.323Z" fill="#858cf3"/><path d="M396.9,6126.859l-.006,2.764a1.674,1.674,0,0,1-.98,1.375l.009-2.76a1.674,1.674,0,0,0,.977-1.379Z" fill="#7d9fb0"/><path d="M349.582,6155.1l-.008,2.764a5.3,5.3,0,0,1-4.786,0l.005-2.764a5.31,5.31,0,0,0,4.789,0Z" fill="#7d9fb0"/><path d="M279.141,6119.142l.008-2.76a1.7,1.7,0,0,0,1,1.394l-.009,2.762a1.7,1.7,0,0,1-1-1.4Z" fill="#7d9fb0"/><path d="M395.921,6128.238l-.009,2.76-46.337,26.865.007-2.764,46.339-26.861Z" fill="#7d9fb0"/><path d="M344.793,6155.1l-.006,2.764-64.649-37.325.009-2.761,64.645,37.323Z" fill="#7d9fb0"/><path d="M395.9,6125.464c1.319.763,1.327,2.011.017,2.774L349.582,6155.1a5.31,5.31,0,0,1-4.789,0l-64.645-37.323c-1.33-.767-1.327-2.01-.017-2.773l46.342-26.862a5.282,5.282,0,0,1,4.786,0l64.645,37.323Z" fill="#9eb7c7"/><path d="M343.459,6132.461l-23.827-13.756a2.632,2.632,0,0,0-2.393,0l-12.307,7.084a.734.734,0,0,0,.006,1.387l23.827,13.758a2.631,2.631,0,0,0,2.393,0l12.31-7.087c.665-.387.663-1-.009-1.386" fill="#afc7d4"/><path d="M331.97,6092.359l0,.692-4.353,2.527,0-.69,4.353-2.529Z" fill="#002745"/><path d="M327.617,6094.889l0,.69-4.284-2.472,0-.69,4.284,2.472Z" fill="#002745"/><path d="M331.97,6092.359l-4.353,2.529-4.284-2.472,4.353-2.531,4.284,2.473Z" fill="#56538e"/><path d="M337.463,6095.532l0,.69-4.353,2.529,0-.69,4.353-2.529Z" fill="#002745"/><path d="M333.111,6098.062l0,.69-4.291-2.479v-.69l4.293,2.479Z" fill="#002745"/><path d="M337.463,6095.532l-4.353,2.529-4.293-2.479,4.351-2.531,4.3,2.48Z" fill="#56538e"/><path d="M342.946,6098.7l0,.69-4.351,2.529,0-.69,4.351-2.529Z" fill="#002745"/><path d="M338.595,6101.227l0,.69-4.282-2.474,0-.69,4.282,2.474Z" fill="#002745"/><path d="M342.946,6098.7l-4.351,2.529-4.282-2.474,4.353-2.527,4.28,2.471Z" fill="#56538e"/><path d="M348.432,6101.863l0,.69-4.353,2.529,0-.69,4.353-2.529Z" fill="#002745"/><path d="M344.079,6104.392l0,.69-4.284-2.473,0-.69,4.284,2.473Z" fill="#002745"/><path d="M348.432,6101.863l-4.353,2.529-4.284-2.473,4.353-2.527,4.284,2.471Z" fill="#56538e"/><path d="M353.914,6105.029l0,.69-4.351,2.531,0-.692,4.351-2.529Z" fill="#002745"/><path d="M349.563,6107.558l0,.692-4.284-2.475,0-.69,4.284,2.473Z" fill="#002745"/><path d="M353.914,6105.029l-4.351,2.529-4.284-2.473,4.353-2.527,4.282,2.471Z" fill="#56538e"/><path d="M359.409,6108.2l0,.69-4.353,2.531,0-.692,4.353-2.529Z" fill="#002745"/><path d="M355.056,6110.73l0,.692-4.284-2.475,0-.69,4.284,2.473Z" fill="#002745"/><path d="M359.409,6108.2l-4.353,2.529-4.284-2.473,4.353-2.529,4.284,2.473Z" fill="#56538e"/><path d="M364.892,6111.367l0,.69-4.353,2.531,0-.69,4.353-2.531Z" fill="#002745"/><path d="M360.539,6113.9l0,.69-4.28-2.473,0-.69,4.28,2.473Z" fill="#002745"/><path d="M364.892,6111.367l-4.353,2.531-4.28-2.473,4.351-2.531,4.282,2.473Z" fill="#56538e"/><path d="M370.378,6114.533l0,.692-4.351,2.529,0-.69,4.353-2.531Z" fill="#002745"/><path d="M366.025,6117.063l0,.69-4.284-2.473,0-.69,4.284,2.473Z" fill="#002745"/><path d="M370.378,6114.533l-4.353,2.531-4.284-2.473,4.353-2.529,4.284,2.472Z" fill="#56538e"/><path d="M375.871,6117.708l0,.69-4.353,2.527,0-.69,4.353-2.527Z" fill="#002745"/><path d="M371.518,6120.234l0,.69-4.3-2.479,0-.69,4.3,2.479Z" fill="#002745"/><path d="M375.871,6117.708l-4.353,2.527-4.3-2.479,4.353-2.527,4.3,2.479Z" fill="#56538e"/><path d="M381.353,6120.873l0,.69L377,6124.092l0-.69,4.351-2.529Z" fill="#002745"/><path d="M377,6123.4l0,.69-4.282-2.473,0-.69L377,6123.4Z" fill="#002745"/><path d="M381.353,6120.873,377,6123.4l-4.284-2.473,4.353-2.529,4.282,2.473Z" fill="#56538e"/><path d="M392.331,6127.211l0,.69-4.351,2.527,0-.69,4.351-2.527Z" fill="#002745"/><path d="M387.98,6129.738l0,.69-9.777-5.644,0-.69,9.777,5.644Z" fill="#002745"/><path d="M392.331,6127.211l-4.351,2.527-9.777-5.644,4.351-2.529,9.777,5.646Z" fill="#56538e"/><path d="M331.919,6098.753l0,.69-4.342,2.523,0-.692,4.342-2.522Z" fill="#002745"/><path d="M327.578,6101.275l0,.692-9.777-5.646,0-.69,9.777,5.645Z" fill="#002745"/><path d="M331.919,6098.753l-4.342,2.522-9.777-5.645,4.342-2.521,9.777,5.644Z" fill="#56538e"/><path d="M337.4,6101.919l0,.69-4.34,2.523,0-.688,4.34-2.525Z" fill="#002745"/><path d="M333.062,6104.444l0,.688-4.284-2.471,0-.692,4.284,2.475Z" fill="#002745"/><path d="M337.4,6101.919l-4.34,2.525-4.284-2.475,4.342-2.521,4.282,2.471Z" fill="#56538e"/><path d="M342.886,6105.084l0,.69-4.342,2.525,0-.69,4.342-2.525Z" fill="#002745"/><path d="M338.544,6107.61l0,.69-4.284-2.473,0-.69,4.284,2.473Z" fill="#002745"/><path d="M342.886,6105.084l-4.342,2.525-4.284-2.473,4.342-2.523,4.284,2.471Z" fill="#56538e"/><path d="M348.368,6108.252l0,.69-4.342,2.523,0-.69,4.34-2.523Z" fill="#002745"/><path d="M344.029,6110.775l0,.69-4.28-2.473,0-.69,4.282,2.473Z" fill="#002745"/><path d="M348.368,6108.252l-4.34,2.523-4.282-2.473,4.34-2.523,4.282,2.473Z" fill="#56538e"/><path d="M353.864,6111.425v.69l-4.343,2.521,0-.69,4.342-2.521Z" fill="#002745"/><path d="M349.522,6113.946l0,.69-4.282-2.471,0-.69,4.282,2.471Z" fill="#002745"/><path d="M353.864,6111.425l-4.342,2.521-4.282-2.471,4.342-2.525,4.282,2.475Z" fill="#56538e"/><path d="M359.348,6114.59l0,.69L355,6117.8l0-.69,4.342-2.521Z" fill="#002745"/><path d="M355.006,6117.112l0,.69-4.284-2.471,0-.69,4.282,2.471Z" fill="#002745"/><path d="M359.348,6114.59l-4.342,2.521-4.282-2.471,4.34-2.521,4.284,2.471Z" fill="#56538e"/><path d="M364.832,6117.756l0,.69-4.34,2.521,0-.688,4.342-2.523Z" fill="#002745"/><path d="M360.49,6120.279l0,.688L356.2,6118.5l0-.69,4.284,2.473Z" fill="#002745"/><path d="M364.832,6117.756l-4.342,2.523-4.284-2.473,4.342-2.522,4.284,2.472Z" fill="#56538e"/><path d="M370.326,6120.929l0,.69-4.342,2.523,0-.692,4.342-2.521Z" fill="#002745"/><path d="M365.984,6123.45l0,.692-4.293-2.479,0-.692,4.293,2.479Z" fill="#002745"/><path d="M370.326,6120.929l-4.342,2.521-4.293-2.479,4.342-2.521,4.293,2.479Z" fill="#56538e"/><path d="M375.808,6124.094l0,.69-4.342,2.523,0-.69,4.342-2.523Z" fill="#002745"/><path d="M371.466,6126.618l0,.69-4.28-2.474,0-.69,4.28,2.474Z" fill="#002745"/><path d="M375.808,6124.094l-4.342,2.523-4.28-2.474,4.342-2.523,4.28,2.474Z" fill="#56538e"/><path d="M381.294,6127.259l0,.69-4.342,2.523,0-.69,4.342-2.523Z" fill="#002745"/><path d="M376.952,6129.783l0,.69L372.667,6128l0-.69,4.284,2.471Z" fill="#002745"/><path d="M381.294,6127.259l-4.342,2.523-4.284-2.471,4.342-2.525,4.284,2.473Z" fill="#56538e"/><path d="M386.787,6130.433l0,.692-4.342,2.521,0-.69,4.342-2.523Z" fill="#002745"/><path d="M382.446,6132.956l0,.69-4.3-2.479,0-.69,4.293,2.479Z" fill="#002745"/><path d="M386.787,6130.433l-4.342,2.523-4.293-2.479,4.34-2.523,4.3,2.479Z" fill="#56538e"/><path d="M326.385,6101.969l0,.692-4.342,2.521,0-.69,4.342-2.523Z" fill="#002745"/><path d="M322.043,6104.493l0,.69-9.777-5.644,0-.69,9.777,5.644Z" fill="#002745"/><path d="M326.385,6101.969l-4.342,2.523-9.777-5.644,4.342-2.523,9.777,5.644Z" fill="#56538e"/><path d="M331.867,6105.137l0,.69-4.342,2.521,0-.69,4.34-2.521Z" fill="#002745"/><path d="M327.528,6107.658l0,.69-4.282-2.473,0-.69,4.284,2.473Z" fill="#002745"/><path d="M331.867,6105.137l-4.34,2.521-4.284-2.473,4.34-2.521,4.284,2.473Z" fill="#56538e"/><path d="M337.352,6108.3l0,.69-4.342,2.521,0-.69,4.342-2.521Z" fill="#002745"/><path d="M333.01,6110.824l0,.69-4.282-2.471,0-.69,4.282,2.471Z" fill="#002745"/><path d="M337.352,6108.3l-4.342,2.521-4.282-2.471,4.342-2.523,4.282,2.473Z" fill="#56538e"/><path d="M342.836,6111.468l0,.69-4.342,2.523,0-.692,4.342-2.521Z" fill="#002745"/><path d="M338.494,6113.989l0,.692-4.282-2.474,0-.69,4.282,2.471Z" fill="#002745"/><path d="M342.836,6111.468l-4.342,2.521-4.282-2.471,4.34-2.524,4.284,2.474Z" fill="#56538e"/><path d="M348.331,6114.641l0,.69-4.34,2.523,0-.69,4.342-2.523Z" fill="#002745"/><path d="M343.99,6117.164l0,.69-4.284-2.473,0-.692,4.284,2.475Z" fill="#002745"/><path d="M348.331,6114.641l-4.342,2.523-4.284-2.475,4.342-2.521,4.284,2.473Z" fill="#56538e"/><path d="M353.813,6117.806l0,.69-4.342,2.523,0-.69,4.342-2.523Z" fill="#002745"/><path d="M349.472,6120.33l0,.69-4.284-2.473,0-.69,4.284,2.473Z" fill="#002745"/><path d="M353.813,6117.806l-4.342,2.523-4.284-2.473,4.342-2.524,4.284,2.474Z" fill="#56538e"/><path d="M359.3,6120.971l0,.692-4.34,2.521,0-.69,4.34-2.523Z" fill="#002745"/><path d="M354.956,6123.495l0,.69-4.282-2.473,0-.69,4.282,2.473Z" fill="#002745"/><path d="M359.3,6120.971l-4.34,2.523-4.282-2.473,4.342-2.523,4.28,2.473Z" fill="#56538e"/><path d="M364.793,6124.144l0,.69-4.342,2.524,0-.691,4.342-2.523Z" fill="#002745"/><path d="M360.451,6126.667l0,.691-4.3-2.481,0-.688,4.295,2.479Z" fill="#002745"/><path d="M364.793,6124.144l-4.342,2.523-4.295-2.479,4.342-2.525,4.3,2.48Z" fill="#56538e"/><path d="M370.275,6127.312l0,.69-4.342,2.521,0-.69,4.342-2.521Z" fill="#002745"/><path d="M365.934,6129.833l0,.69-4.282-2.473,0-.69,4.282,2.473Z" fill="#002745"/><path d="M370.275,6127.312l-4.342,2.521-4.282-2.473,4.34-2.521,4.284,2.473Z" fill="#56538e"/><path d="M381.253,6133.648l0,.69-4.342,2.523,0-.692,4.342-2.521Z" fill="#002745"/><path d="M376.911,6136.169l0,.692-9.777-5.646,0-.69,9.777,5.644Z" fill="#002745"/><path d="M381.253,6133.648l-4.342,2.521-9.777-5.644,4.342-2.521,9.777,5.644Z" fill="#56538e"/><path d="M326.335,6108.353l0,.69-4.342,2.523,0-.69,4.342-2.523Z" fill="#002745"/><path d="M321.993,6110.876l0,.69-15.262-8.813,0-.69,15.262,8.813Z" fill="#002745"/><path d="M326.335,6108.353l-4.342,2.523-15.262-8.813,4.342-2.521,15.262,8.812Z" fill="#56538e"/><path d="M331.819,6111.518l0,.69-4.342,2.523,0-.69,4.342-2.523Z" fill="#002745"/><path d="M327.477,6114.041l0,.69-4.284-2.473,0-.69,4.284,2.473Z" fill="#002745"/><path d="M331.819,6111.518l-4.342,2.523-4.284-2.473,4.342-2.523,4.284,2.474Z" fill="#56538e"/><path d="M337.3,6114.685l0,.69-4.342,2.521,0-.69,4.342-2.521Z" fill="#002745"/><path d="M332.96,6117.207l0,.69-4.284-2.473,0-.69,4.284,2.473Z" fill="#002745"/><path d="M337.3,6114.685l-4.342,2.521-4.284-2.473,4.342-2.523,4.284,2.475Z" fill="#56538e"/><path d="M342.795,6117.856l0,.69-4.34,2.522,0-.689,4.34-2.523Z" fill="#002745"/><path d="M338.455,6120.379l0,.689-4.284-2.472,0-.69,4.284,2.473Z" fill="#002745"/><path d="M342.795,6117.856l-4.34,2.523-4.284-2.473,4.342-2.523,4.282,2.474Z" fill="#56538e"/><path d="M348.281,6121.021l0,.69-4.342,2.523v-.69l4.343-2.523Z" fill="#002745"/><path d="M343.937,6123.545v.69l-4.284-2.473,0-.69,4.282,2.473Z" fill="#002745"/><path d="M348.281,6121.021l-4.343,2.523-4.282-2.473L344,6118.55l4.284,2.471Z" fill="#56538e"/><path d="M353.763,6124.189l0,.688-4.342,2.525,0-.692,4.34-2.521Z" fill="#002745"/><path d="M349.423,6126.71l0,.692-4.282-2.475,0-.69,4.284,2.473Z" fill="#002745"/><path d="M353.763,6124.189l-4.34,2.521-4.284-2.473,4.34-2.521,4.284,2.473Z" fill="#56538e"/><path d="M359.259,6127.36l0,.69-4.342,2.523,0-.69,4.342-2.523Z" fill="#002745"/><path d="M354.917,6129.883l0,.69-4.3-2.479,0-.692,4.3,2.48Z" fill="#002745"/><path d="M359.259,6127.36l-4.342,2.523-4.3-2.48,4.342-2.521,4.3,2.479Z" fill="#56538e"/><path d="M364.741,6130.525l0,.69-4.342,2.523,0-.688,4.342-2.525Z" fill="#002745"/><path d="M360.4,6133.051l0,.688-4.284-2.471,0-.69,4.282,2.473Z" fill="#002745"/><path d="M364.741,6130.525l-4.342,2.525-4.282-2.473,4.34-2.523,4.284,2.471Z" fill="#56538e"/><path d="M375.72,6136.864l0,.692-4.342,2.521,0-.69,4.342-2.523Z" fill="#002745"/><path d="M371.379,6139.387l0,.69-9.777-5.644,0-.69,9.777,5.644Z" fill="#002745"/><path d="M375.72,6136.864l-4.342,2.523-9.777-5.644,4.342-2.523,9.777,5.644Z" fill="#56538e"/><path d="M309.821,6105.229v.69l-4.353,2.529,0-.69,4.349-2.529Z" fill="#002745"/><path d="M305.472,6107.759l0,.69-4.282-2.473,0-.688,4.284,2.471Z" fill="#002745"/><path d="M309.821,6105.229l-4.349,2.529-4.284-2.471,4.353-2.531,4.28,2.473Z" fill="#56538e"/><path d="M315.318,6108.4l0,.69-4.353,2.529,0-.69,4.353-2.529Z" fill="#002745"/><path d="M310.965,6110.932l0,.69-4.3-2.479,0-.69,4.3,2.479Z" fill="#002745"/><path d="M315.318,6108.4l-4.353,2.529-4.3-2.479,4.353-2.529,4.3,2.479Z" fill="#56538e"/><path d="M320.8,6111.568l0,.69-4.353,2.529,0-.69,4.353-2.529Z" fill="#002745"/><path d="M316.448,6114.1l0,.69-4.284-2.473,0-.69,4.282,2.473Z" fill="#002745"/><path d="M320.8,6111.568l-4.353,2.529-4.282-2.473,4.351-2.527,4.284,2.471Z" fill="#56538e"/><path d="M348.229,6127.4l0,.692-4.353,2.529,0-.69,4.351-2.531Z" fill="#002745"/><path d="M343.878,6129.934l0,.69-26.226-15.144,0-.69,26.228,15.144Z" fill="#002745"/><path d="M348.229,6127.4l-4.351,2.531L317.65,6114.79l4.351-2.527,26.228,15.141Z" fill="#56538e"/><path d="M353.724,6130.578l0,.69-4.351,2.527,0-.69,4.353-2.527Z" fill="#002745"/><path d="M349.371,6133.1l0,.69-4.293-2.479,0-.69,4.293,2.479Z" fill="#002745"/><path d="M353.724,6130.578l-4.353,2.527-4.293-2.479,4.353-2.527,4.293,2.479Z" fill="#56538e"/><path d="M359.208,6133.743l0,.69-4.353,2.527,0-.69,4.353-2.527Z" fill="#002745"/><path d="M354.856,6136.27l0,.69-4.284-2.471,0-.69,4.284,2.471Z" fill="#002745"/><path d="M359.208,6133.743l-4.353,2.527-4.284-2.471,4.353-2.529,4.284,2.473Z" fill="#56538e"/><path d="M370.186,6140.08l0,.69-4.353,2.529,0-.69,4.353-2.529Z" fill="#002745"/><path d="M365.833,6142.608l0,.69-9.777-5.644,0-.69,9.777,5.644Z" fill="#002745"/><path d="M370.186,6140.08l-4.353,2.529-9.777-5.644,4.353-2.529,9.777,5.645Z" fill="#56538e"/><path d="M338.866,6080.546,388.9,6109.43V6073.4h0l-50.031-28.887v36.03Z" fill="#aee1f4"/><path d="M385.531,6076.833l-17.885-10.326v25.108l17.885,10.326v-25.108Z" fill="#858cf3"/><path d="M343.837,6054.234l20.044,11.573v-1.474l-20.044-11.573v1.474Z" fill="#56538e"/><path d="M343.837,6057.634l20.044,11.573v-1.472l-20.044-11.575v1.474Z" fill="#56538e"/><path d="M343.837,6061.036l20.044,11.573v-1.474l-20.044-11.573v1.474Z" fill="#56538e"/><path d="M343.837,6064.438l20.044,11.573v-1.474l-20.044-11.573v1.474Z" fill="#56538e"/><path d="M343.837,6067.84l20.044,11.571v-1.474l-20.044-11.571v1.474Z" fill="#56538e"/><path d="M343.837,6071.24l20.044,11.573v-1.472l-20.044-11.575v1.474Z" fill="#56538e"/><path d="M343.837,6078.042l13.957,8.06v-1.474l-13.957-8.06v1.474Z" fill="#56538e"/><path d="M343.837,6074.642l20.044,11.573v-1.474l-20.044-11.573v1.474Z" fill="#56538e"/><path d="M375.084,6073.056l-5.285,7.516,10.57,6.1-5.285-13.62Z" fill="#ffd150"/><path d="M379.314,6077.707l-5.285,7.518,10.568,6.1-5.283-13.62Z" fill="#5b6bf4"/><path d="M383.434,6093.128c0,2.628-1.844,3.692-4.12,2.378a9.106,9.106,0,0,1-4.122-7.136c0-2.628,1.846-3.692,4.122-2.379a9.1,9.1,0,0,1,4.12,7.137Z" fill="#ff827e"/><path d="M568.009,5993.375l5.4,6.195,2.665-4.613-8.067-1.582Z" fill="#fff"/><path d="M568.009,5993.375l1.483,1.7.731-1.267-2.214-.434Z" fill="#5b6bf4"/><path d="M576.076,5994.956a1.335,1.335,0,0,0-1.347.132,4.141,4.141,0,0,0-1.881,3.263,1.322,1.322,0,0,0,.55,1.211L612.88,6022.5a1.314,1.314,0,0,1-.551-1.209,4.139,4.139,0,0,1,1.882-3.264,1.333,1.333,0,0,1,1.347-.132l-39.482-22.944Z" fill="#5b6bf4"/><path d="M614.211,6018.032c1.042-.6,1.892-.121,1.9,1.081a4.149,4.149,0,0,1-1.883,3.26c-1.044.6-1.891.119-1.9-1.077a4.139,4.139,0,0,1,1.882-3.264Z" fill="#3d5ded"/><path d="M586.821,5996.614l5.4,6.195,2.665-4.613-8.067-1.582Z" fill="#fff"/><path d="M586.821,5996.614l1.483,1.7.733-1.266-2.216-.436Z" fill="#ff827e"/><path d="M594.889,5998.2a1.336,1.336,0,0,0-1.348.13,4.149,4.149,0,0,0-1.879,3.264,1.311,1.311,0,0,0,.551,1.21l25.474,14.826a1.319,1.319,0,0,1-.551-1.209,4.143,4.143,0,0,1,1.883-3.265,1.332,1.332,0,0,1,1.346-.13L594.889,5998.2Z" fill="#ff827e"/><path d="M619.019,6013.152c1.04-.6,1.893-.121,1.9,1.082a4.156,4.156,0,0,1-1.886,3.262c-1.044.6-1.89.117-1.894-1.079a4.143,4.143,0,0,1,1.883-3.265Z" fill="#f24b4b"/><path d="M561.578,6005.292a.673.673,0,0,1-.4-.558l-.015,4.95a.681.681,0,0,0,.4.558l5.562,3.214.015-4.952-5.562-3.212Z" fill="#3d5ded"/><path d="M574.554,6004.194l-.015,4.952-7.414,4.31.015-4.952,7.414-4.31Z" fill="#00c3b6"/><path d="M574.554,6004.194l-7.414,4.31-5.562-3.212c-.531-.307-.538-.8-.011-1.106l5.514-3.206a2.1,2.1,0,0,1,1.911,0l5.562,3.21Z" fill="#5b6bf4"/><path d="M578.432,6006.435l-.015,4.952L571,6015.694l.015-4.952,7.414-4.308Z" fill="#eee"/><path d="M571.018,6010.743l-.015,4.952-3.878-2.239.015-4.952,3.878,2.239Z" fill="#cfccff"/><path d="M578.432,6006.435l-7.414,4.308-3.878-2.239,7.414-4.31,3.878,2.241Z" fill="#fff"/><path d="M584.006,6010.754l-5.512,3.2a2.11,2.11,0,0,1-1.913,0l-5.563-3.214-.015,4.952,5.563,3.212a2.112,2.112,0,0,0,1.913,0l5.514-3.206a.664.664,0,0,0,.39-.547l.014-4.952a.671.671,0,0,1-.391.549Z" fill="#f24b4b"/><path d="M584,6009.645c.531.307.538.8.01,1.109l-5.512,3.2a2.11,2.11,0,0,1-1.913,0l-5.563-3.214,7.414-4.308,5.564,3.211Z" fill="#ff827e"/><path d="M509.382,5963.3,430.2,6009.008c-1.831,1.059-1.6,2.905.512,4.126l45.855,26.475a7.951,7.951,0,0,0,7.144.3l79.181-45.716c1.83-1.057,1.6-2.9-.515-4.121l-45.854-26.476a7.941,7.941,0,0,0-7.144-.3Z" fill="#fff"/><path d="M516.336,5978.094l5.2-3,30.309,17.5-5.2,3-30.311-17.5Z" fill="#e8eeef"/><path d="M505.2,5984.525l5.2-3,30.311,17.5-5.2,3-30.311-17.5Z" fill="#e8eeef"/><path d="M494.059,5990.955l5.2-3,30.311,17.5-5.2,3-30.313-17.5Z" fill="#e8eeef"/><path d="M482.922,5997.387l5.2-3,30.311,17.5-5.2,3-30.311-17.5Z" fill="#e8eeef"/><path d="M471.784,6003.818l5.2-3,30.311,17.5-5.2,3-30.311-17.5Z" fill="#e8eeef"/><path d="M516.336,5978.094l5.2-3,7.568,4.369-5.2,3-7.57-4.371Z" fill="#ffc8ae"/><path d="M505.2,5984.525l5.2-3,17.666,10.2-5.2,3-17.666-10.2Z" fill="#ffd150"/><path d="M494.059,5990.955l5.2-3,12.891,7.44-5.2,3-12.891-7.442Z" fill="#5b6bf4"/><path d="M482.922,5997.387l5.2-3,21.868,12.625-5.2,3-21.868-12.625Z" fill="#56538e"/><path d="M471.784,6003.818l5.2-3,25.778,14.882-5.2,3-25.778-14.882Z" fill="#ff827e"/><path d="M494.867,6022.963l-16.851,9.729,2.19,1.264,16.849-9.729-2.188-1.264Z" fill="#e8eeef"/><path d="M489.814,6020.047l-16.849,9.729,2.188,1.262L492,6021.311l-2.188-1.263Z" fill="#e8eeef"/><path d="M484.762,6017.131l-16.847,9.727,2.187,1.263,16.851-9.729-2.19-1.262Z" fill="#e8eeef"/><path d="M479.71,6014.213l-16.847,9.729,2.188,1.263,16.849-9.729-2.19-1.264Z" fill="#e8eeef"/><path d="M474.659,6011.3l-16.849,9.727,2.19,1.264,16.847-9.727-2.188-1.264Z" fill="#e8eeef"/><path d="M469.608,6008.379l-16.851,9.729,2.19,1.264,16.849-9.727-2.188-1.266Z" fill="#e8eeef"/><path d="M459.5,6002.547l-11.733,6.774,2.188,1.264,11.733-6.774-2.189-1.264Z" fill="#e8eeef"/><path d="M464.556,6005.463l-16.851,9.729,2.19,1.264,16.849-9.727-2.188-1.266Z" fill="#e8eeef"/><path d="M516.236,5972.033l-49.752,28.726,2.188,1.263,49.752-28.725-2.188-1.264Z" fill="#e8eeef"/><path d="M513.739,6034.11l35.432-20.458,20.163,11.64L533.9,6045.752l-20.163-11.642Z" fill="#ffd150"/><path d="M533.9,6045.752l3.923-18.193,31.509-2.267L533.9,6045.752Z" fill="#ffbc2d"/><path d="M549.171,6013.653l-4.012,18.143-31.42,2.315,35.432-20.458Z" fill="#ffdc80"/><path d="M709.662,6061.15l61.212,35.341-77.281,44.62-61.212-35.341,77.281-44.62Z" fill="#fff"/><path d="M693.094,6106.058Z" fill="#ff827e"/><path d="M693.094,6106.058l-8.453-13.458a30.723,30.723,0,0,0-9.116,3.314l17.569,10.144Z" fill="#ff827e"/><path d="M693.094,6106.058l17.567-10.144c-6.986-4.033-17.236-5.127-26.02-3.314l8.453,13.458Z" fill="#3d5ded"/><path d="M675.525,6116.2l17.569-10.142-24.645-1.824c-.977,4.4,1.64,8.827,7.076,11.966Z" fill="#ff827e"/><path d="M701.546,6119.512a30.773,30.773,0,0,0,9.115-3.312c9.64-5.564,9.64-14.722,0-20.286l-17.567,10.144,8.452,13.454Z" fill="#5b6bf4"/><path d="M701.546,6119.512l-8.452-13.454L675.525,6116.2c6.986,4.033,17.236,5.127,26.021,3.312Z" fill="#ffd150"/><path d="M743.008,6104.539a.708.708,0,0,1-.352-.091l-46.073-26.6a.7.7,0,0,1,.7-1.213l46.073,26.6a.7.7,0,0,1-.348,1.3Z" fill="#cfccff"/><path d="M748.42,6101.415a.7.7,0,0,1-.348-.093l-46.077-26.6a.7.7,0,0,1,.7-1.212l46.074,26.6a.7.7,0,0,1-.349,1.305Z" fill="#cfccff"/><path d="M753.833,6098.29a.687.687,0,0,1-.35-.1l-46.075-26.6a.7.7,0,1,1,.7-1.211l46.075,26.6a.7.7,0,0,1-.35,1.3Z" fill="#cfccff"/><path d="M758.493,6144.032l-.025,8.573a3.849,3.849,0,0,1-2.255,3.153l.024-8.575a3.847,3.847,0,0,0,2.256-3.151Z" fill="#ffbc2d"/><path d="M672.024,6152.566l.025-8.573a3.873,3.873,0,0,0,2.288,3.19l-.022,8.575a3.873,3.873,0,0,1-2.291-3.192Z" fill="#ffdc80"/><path d="M756.237,6147.183l-.024,8.575-35.362,20.55.024-8.575,35.362-20.55Z" fill="#ffbc2d"/><path d="M709.948,6167.742l-.026,8.575-35.607-20.56.022-8.575,35.611,20.56Z" fill="#ffdc80"/><path d="M720.878,6167.739l-.028,8.573a12.075,12.075,0,0,1-10.917,0v-8.573a12.134,12.134,0,0,0,10.945,0Z" fill="#ffdc80"/><path d="M756.217,6140.854c3.022,1.745,3.039,4.576.02,6.329l-35.361,20.55a12.013,12.013,0,0,1-10.928.009l-35.611-20.559c-3.036-1.753-3.053-4.584-.035-6.339l35.363-20.55a12.047,12.047,0,0,1,10.945,0l35.607,20.56Z" fill="#ffd150"/><path d="M829.724,6119.654l-.024,8.575a3.857,3.857,0,0,1-2.256,3.151l.024-8.574a3.852,3.852,0,0,0,2.256-3.152Z" fill="#f46868"/><path d="M743.255,6128.188l.023-8.573a3.877,3.877,0,0,0,2.291,3.191l-.025,8.574a3.878,3.878,0,0,1-2.289-3.192Z" fill="#ff9898"/><path d="M827.468,6122.806l-.024,8.573-35.361,20.551.024-8.574,35.361-20.55Z" fill="#f46868"/><path d="M781.18,6143.366l-.024,8.574-35.611-20.56.024-8.573,35.611,20.56Z" fill="#ff9898"/><path d="M792.094,6143.358v8.572a12.14,12.14,0,0,1-10.946,0l.032-8.572a11.3,11.3,0,0,0,5.456,1.305,11.146,11.146,0,0,0,5.458-1.305Z" fill="#f46868"/><path d="M827.45,6116.475c3.022,1.746,3.037,4.576.018,6.331l-35.361,20.551a12.032,12.032,0,0,1-10.927.009l-35.611-20.56c-3.039-1.755-3.056-4.583-.036-6.338l35.362-20.55a12.033,12.033,0,0,1,10.944,0l35.611,20.557Z" fill="#ff827e"/><text transform="translate(738.982 6150.194) rotate(-135)" fill="#fff" font-size="11" font-family="OpenSans-Semibold, Open Sans" font-weight="600"><tspan x="0" y="0">DATA</tspan></text><text transform="translate(813.72 6128.198) rotate(-135)" fill="#fff" font-size="13" font-family="OpenSans-Semibold, Open Sans" font-weight="600"><tspan x="0" y="0">DATA</tspan></text><path d="M786.636,6144.663v8.571a11.034,11.034,0,0,1-5.488-1.3l.032-8.572a11.3,11.3,0,0,0,5.456,1.305Z" fill="#ff9898"/><path d="M720.878,6167.739l-.028,8.573a11.021,11.021,0,0,1-5.458,1.3v-8.573a11.349,11.349,0,0,0,5.486-1.3Z" fill="#ffbc2d"/><path d="M799.024,6105.295c-6.826,3.035-13.125,25.837-9.381,33.869s9.7,8.638,17.21,6.63,16.008-11.839,18.777-20.98c3.774-12.448-7.144-28.176-26.606-19.519Z" fill="#ffc8ae" fill-rule="evenodd"/><path d="M791.011,6380.338v1.8c-3.6,2.109-11.653.992-13.762,0-1.384-2.1-5.143-1.543-7.25-.709-8.058.709-11.006-.482-13.7-2.453-1.362-1-3.808-3.6-3.514-6.353,9.59,2.2,38.226,7.716,38.226,7.716Z" fill="#002745" fill-rule="evenodd"/><path d="M777.249,6366.394s-8.8,2.478-14.007,3.223-8.925-.125-10.165,1.734,1.487,6.7,6.075,8.307,14.007-.249,17.477.5,12.273,2.349,14.382.183,0-12.705,0-12.705l-13.762-1.239Z" fill="#002745" fill-rule="evenodd"/><path d="M826.043,6354.8,810.3,6337.164c-6.281-1.8-12.887-2.17-12.048,3.627.746,5.145,8.934,7.393,14.567,12.4l5.191,4.607c3.729,3.313,8.5.417,8.037-3" fill="#002745" fill-rule="evenodd"/><path d="M811.137,6133.918a15.494,15.494,0,0,1-1.945,1.781,35.564,35.564,0,0,1-13,6.351c-.8.209-1.662.4-2.546.551l.4,4.557c5.313,1.459,10.477-.787,14.151-1.808,2.735-.756,6.976-1.454,6.976-4.333l-4.019-7.1-.015,0Z" fill="#ffc8ae" fill-rule="evenodd"/><path d="M818.006,6357.794l-5.191-4.607c-5.633-5-13.821-7.251-14.567-12.4h0v0h0v0l0-.026v0h0v0h0v0l0,0h0v0h0v0h0v-.015h0v0l0,0h0a5.8,5.8,0,0,0,.009,1.74c.746,5.144,8.934,7.393,14.567,12.392l5.191,4.609c4.4,3.908,9.044,1.121,8.037-4.667.46,3.415-4.308,6.311-8.037,3" fill="#002745" fill-rule="evenodd"/><path d="M825.944,6232.265c5.438,7.7-8.158,29.008-4.44,55.536,2.524,17.991,7.44,48.192,6.266,65.239-.216,3.1-12.355,5.326-15.645-9.7-5.6-25.553-12.606-41.5-15.072-61.324l1.309-57.507,27.582,7.759Z" fill="#2c2c75" fill-rule="evenodd"/><path d="M808.554,6229.466c1.505,23.892-15.615,53.128-14.484,72.416,1.171,19.894-.994,44.084-1.049,65.611,0,0-17.584,8.328-18.373-4.542-2.585-42.175-10.662-55.316.238-132.486l33.668-1Z" fill="#444481" fill-rule="evenodd"/><path d="M776.7,6206.342c-.613-23.02,3.682-45.7,3.682-45.7a31.38,31.38,0,0,1,7.507-7.652l5.626-6.815q6-1.473,11.852-3.288a33.122,33.122,0,0,1,19.393-.024h0c8.3,3.519,9.889,9.115,6.2,19.83.088.482-7.3,29.957-8.253,38.964-.089.884,6.292,24.766,7.689,34.508,0,0-6.066,5.543-7.741,6.943-12.338,15.31-52.661-3.257-54.181-11.408-.566-3.046,4.388-12.52,8.229-25.353Z" fill="#56538e" fill-rule="evenodd"/><path d="M796.487,6106.715a14.067,14.067,0,0,0-3.262,5.836c-1.252,3.98-.912,6.658-1.027,8.707s-.947,3.184-.532,4.206,2.921-4.548,5.309-5.118,2.04,6.618-3.184,8.644c-2.239,3.411-.454,11.791.8,13.628s8.989,4.159,15.525,1.861,10.856-8.894,16.258-17.538,0-14.9,0-14.9c2.673-5.914-17.569-13.532-25.984-13.761-5.231.115-3.9,8.43-3.9,8.43Z" fill="#002745" fill-rule="evenodd"/><path d="M806.03,6166.393c2.624-9.055-7.423-20.18-16.37-17.217-3.186,1.055-5.89,2.106-7.561,4.916-4.139,6.958-4.835,30.724-8.24,45.1-.514.115-1.058.2-1.592.3,5.477,7.388,8.07,11.12,12.917,17.88a9.3,9.3,0,0,0,1.033-.4c1.429-.768,19.784-50.485,19.813-50.582Z" fill="#56538e"/><path d="M385.929,6442.51l14.786-1.333s9.457,2.663,15.051,3.463,9.589-.132,10.922,1.865a2.244,2.244,0,0,1,.314,1.364h0v.01c0,.018,0,.037,0,.055.272,2.939-2.32,5.7-3.776,6.763-2.891,2.116-6.061,3.4-14.718,2.633-2.264-.893-6.305-1.49-7.791.765-2.265,1.064-10.922,2.263-14.786,0v-1.933c-2.264-2.33,0-13.652,0-13.652Z" fill="#002745" fill-rule="evenodd"/><path d="M379.44,6306.39c-4.875,25.178,12.575,52.712,11.16,73.04-1.939,27.858-3.009,40.028-5.888,62.715,0,0,11.317,6.71,19.652-.968,8.53-44.444,12.3-52.409,11.117-133.732l-36.041-1.055Z" fill="#5b6bf4" fill-rule="evenodd"/><path d="M448.26,6190.6c5,5.828.8,29.782-6.22,35.589s-12.816,3.746-18.9-1.428-9.647-18.049-8.188-27.761c1.982-13.222,19.054-23.016,33.311-6.4Z" fill="#ffae90" fill-rule="evenodd"/><path d="M449.99,6193.042a14.482,14.482,0,0,1,.458,6.857c-.592,4.249-2.088,6.588-2.886,8.538s-.521,3.376-1.36,4.143-.706-5.512-2.675-7.094-4.812,5.246-.852,9.431c.577,4.154-4.773,11.149-6.746,12.305s-10.181-.1-15.237-5.116-6.164-13.045-7.37-23.452,6.568-13.834,6.568-13.834c.123-6.669,22.281-4.823,30.195-1.325,4.809,2.412-.1,9.547-.1,9.547Z" fill="#56538e" fill-rule="evenodd"/><path d="M414.232,6455.916l14.786-1.333s9.457,2.665,15.051,3.464,9.589-.132,10.922,1.864a2.249,2.249,0,0,1,.314,1.366h0v.008c0,.018,0,.037,0,.055.272,2.939-2.32,5.7-3.775,6.765-2.892,2.114-6.062,3.4-14.719,2.633-2.264-.9-6.3-1.492-7.791.763-2.265,1.065-10.922,2.265-14.786,0v-1.933c-2.264-2.33,0-13.652,0-13.652Z" fill="#002745" fill-rule="evenodd"/><path d="M390.652,6312.747c-1.617,25.673,19.4,53.747,20.616,74.472,1.669,28.4,1.721,48.493,1.779,71.624,0,0,18.9,8.949,19.745-4.881,2.774-45.318,5.748-57.224-5.965-140.142l-36.175-1.073Z" fill="#5b6bf4" fill-rule="evenodd"/><path d="M440.116,6230.419c-10.555-5.259-27.646-19.682-41.616-.827-13.1,17.677-18.485,70.8-19.979,81.387-2.025,14.331,37.913,22,46.8,21.618a3.732,3.732,0,0,0,3.812-3c.746-2.615-1.381-4.488-.806-6.9a10.088,10.088,0,0,1,2.093-3.644,8.431,8.431,0,0,0,1.932-3.724c.344-2.279-1.085-4.418-1.343-6.705a13.456,13.456,0,0,1,.682-4.948c3.614-13.492,9.912-25.984,13.418-39.565,2.371-9.186,5.761-23.791-1.794-31.4a8.524,8.524,0,0,0-3.2-2.3Z" fill="#ff827e" fill-rule="evenodd"/><path d="M446.585,6237.533c8.462,26.788,9.241,40.066,17.513,50.653.612.785,23.452,25.262,23.452,25.262s-3.071,5.538-11.051,6.988c-12.76-5.458-27.186-25.521-31.066-29.835-2.235-2.48-14.837-25.58-16.73-37.324s14.35-26.333,17.882-15.744Z" fill="#ff827e" fill-rule="evenodd"/><path d="M772.267,6218.883a78.54,78.54,0,0,0,13.95-1.908s11.134-23.874,14.171-35.434c0,0-4.02,24.565-6.744,32.554s-6.5,11.1-12.364,10.411a81.713,81.713,0,0,1-10.332-1.873l1.319-3.75Z" fill="#2c2c75" fill-rule="evenodd"/></g></g></svg>