<svg xmlns="http://www.w3.org/2000/svg" xmlns:xlink="http://www.w3.org/1999/xlink" viewBox="0 0 279.18 61.83"><defs><linearGradient id="Degradado_sin_nombre_18" y1="30.91" x2="61.83" y2="30.91" gradientUnits="userSpaceOnUse"><stop offset="0" stop-color="#00bff9"/><stop offset="1" stop-color="#5f33be"/></linearGradient><clipPath id="clip-path"><path d="M49.13,0H0V50.77H0a11.54,11.54,0,0,0,11.48,11H61.83V11.27h0A11.52,11.52,0,0,0,50.34,0Z" fill="url(#Degradado_sin_nombre_18)"/></clipPath><linearGradient id="Degradado_sin_nombre_18-3" x1="-12.02" y1="283.52" x2="-11.02" y2="283.52" gradientTransform="matrix(61.83, 0, 0, -61.83, 743.28, 17560.17)" xlink:href="#Degradado_sin_nombre_18"/><clipPath id="clip-path-2"><path d="M235.89,39.2a7.23,7.23,0,0,1-2.11-2.64,7.66,7.66,0,0,1-.77-3.33,7.11,7.11,0,0,1,.78-3.28,6.72,6.72,0,0,1,2.13-2.47,5.25,5.25,0,0,1,3.11-.95,5.09,5.09,0,0,1,3,1,6.75,6.75,0,0,1,2.1,2.48,7.23,7.23,0,0,1,.77,3.28,7.58,7.58,0,0,1-.78,3.35A7.13,7.13,0,0,1,242,39.22a5.09,5.09,0,0,1-6.14,0m10-16a4.19,4.19,0,0,0-.5,1.37l-.29,1.53A7.08,7.08,0,0,0,239,22.69a8.77,8.77,0,0,0-3.9.86A10.07,10.07,0,0,0,232,25.89a11,11,0,0,0-2.81,7.34,11.31,11.31,0,0,0,.74,4A11.48,11.48,0,0,0,232,40.74a10,10,0,0,0,3.12,2.44,8.66,8.66,0,0,0,7.16.24A6.07,6.07,0,0,0,245,41v1.88a6.28,6.28,0,0,1-.95,3.36,7.41,7.41,0,0,1-2.52,2.46,6.68,6.68,0,0,1-3.43.92,6.82,6.82,0,0,1-3-.71,7,7,0,0,1-2.43-1.9,1.85,1.85,0,0,0-.7-.54,2,2,0,0,0-.84-.21,1.85,1.85,0,0,0-1.35.57,1.81,1.81,0,0,0-.57,1.35,2,2,0,0,0,.44,1.23,10.73,10.73,0,0,0,3.76,3,10.59,10.59,0,0,0,4.65,1.06,10.28,10.28,0,0,0,4.1-.82,11.39,11.39,0,0,0,3.43-2.29A10.62,10.62,0,0,0,247.94,47a10,10,0,0,0,.88-4L249,24.59v0A1.91,1.91,0,0,0,247,22.63a1.24,1.24,0,0,0-1.15.57" fill="none"/></clipPath><linearGradient id="Degradado_sin_nombre_4" x1="-13.46" y1="279.72" x2="-12.46" y2="279.72" gradientTransform="matrix(19.8, 0, 0, -19.8, 495.71, 5576.37)" xlink:href="#Degradado_sin_nombre_18"/><clipPath id="clip-path-3"><path d="M253.29,23.17a1.4,1.4,0,0,0-.61,1.19l0,18a1.8,1.8,0,0,0,.55,1.32,1.92,1.92,0,0,0,1.37.55,1.9,1.9,0,0,0,1.35-.54,1.74,1.74,0,0,0,.57-1.31l0-17.78v0a1.68,1.68,0,0,0-.59-1.33,2.19,2.19,0,0,0-1.44-.49,2,2,0,0,0-1.2.46" fill="none"/></clipPath><linearGradient id="Degradado_sin_nombre_4-2" x1="-22.16" y1="256.74" x2="-21.16" y2="256.74" gradientTransform="matrix(3.88, 0, 0, -3.88, 338.65, 1029.42)" xlink:href="#Degradado_sin_nombre_18"/><clipPath id="clip-path-4"><path d="M266.69,23.05a11.31,11.31,0,0,0-3,1.18,6.41,6.41,0,0,0-2.21,2.05,5.18,5.18,0,0,0-.84,3,4.67,4.67,0,0,0,1,3.08,6.23,6.23,0,0,0,2.51,1.76,15.51,15.51,0,0,0,3.35.9c1.2.18,2.37.33,3.49.45l1.92.21a5.21,5.21,0,0,1,1.76.49,1.27,1.27,0,0,1,.74,1.22,2,2,0,0,1-.85,1.73,5.28,5.28,0,0,1-2.1.89,11.8,11.8,0,0,1-2.39.26,9.73,9.73,0,0,1-3.73-.65A4.42,4.42,0,0,1,264,37.47a1.92,1.92,0,0,0-.72-.76,1.86,1.86,0,0,0-2.36.25,1.85,1.85,0,0,0-.57,1.36,2.07,2.07,0,0,0,.23.9,8.06,8.06,0,0,0,3.8,3.62A12.8,12.8,0,0,0,270,44.08a13.67,13.67,0,0,0,4.38-.71,8.12,8.12,0,0,0,3.44-2.19,5.46,5.46,0,0,0,1.34-3.8A4.55,4.55,0,0,0,276.66,33a10,10,0,0,0-2.53-.93,24.06,24.06,0,0,0-2.8-.47c-.49-.06-1.12-.12-1.89-.19a22.55,22.55,0,0,1-2.29-.33,6.84,6.84,0,0,1-1.92-.67,1.3,1.3,0,0,1-.78-1.18,1.82,1.82,0,0,1,.94-1.61,6.65,6.65,0,0,1,2.23-.86,11.4,11.4,0,0,1,2.31-.27,7.12,7.12,0,0,1,3,.59,4.08,4.08,0,0,1,1.9,1.79,2.11,2.11,0,0,0,1.71,1.05,1.84,1.84,0,0,0,1.36-.56,1.94,1.94,0,0,0,.33-2.28,7.82,7.82,0,0,0-3.31-3.23,10.37,10.37,0,0,0-5-1.2,14,14,0,0,0-3.25.38" fill="none"/></clipPath><linearGradient id="Degradado_sin_nombre_4-3" x1="-13.57" y1="279.44" x2="-12.57" y2="279.44" gradientTransform="matrix(18.88, 0, 0, -18.88, 516.41, 5308.81)" xlink:href="#Degradado_sin_nombre_18"/></defs><title>logo</title><g id="Capa_2" data-name="Capa 2"><g id="Capa_1-2" data-name="Capa 1"><path d="M49.13,0H0V50.77H0a11.54,11.54,0,0,0,11.48,11H61.83V11.27h0A11.52,11.52,0,0,0,50.34,0Z" fill="url(#Degradado_sin_nombre_18)"/><g clip-path="url(#clip-path)"><rect width="61.83" height="61.83" fill="url(#Degradado_sin_nombre_18-3)"/></g><path d="M50.54,38.88l-1.21-2h0s-6.64-10.9-7.28-12a31.21,31.21,0,0,0-2.53-3.27,14.18,14.18,0,0,0-3.91-2.44,9.86,9.86,0,0,0-4.07-1.06c-.22,0-.43,0-.64,0s-.42,0-.63,0a9.9,9.9,0,0,0-4.08,1.06,14.22,14.22,0,0,0-3.9,2.44,29.87,29.87,0,0,0-2.53,3.27c-.64,1.12-7.28,12-7.28,12h0l-1.22,2c-1.64,3.09.92,4.26.92,4.26a2.34,2.34,0,0,0,3.66-.8l2.19-3.86s1-1.73,2.21-3.82l1.9-3.11L25,27a7.63,7.63,0,0,1,4.44-3.1,13.37,13.37,0,0,1,1.52-.11,13.55,13.55,0,0,1,1.53.11A7.67,7.67,0,0,1,36.88,27l2.78,4.58,1.91,3.11,2.21,3.82L46,42.34a2.34,2.34,0,0,0,3.66.8s2.55-1.17.91-4.26" fill="#fff"/><path d="M82.55,44.17a1.3,1.3,0,0,1-.92-.42,1.25,1.25,0,0,1-.43-.88,1.63,1.63,0,0,1,.14-.73L91.88,18a1.66,1.66,0,0,1,.51-.58,1.22,1.22,0,0,1,.74-.29,1.38,1.38,0,0,1,1.4.87L105.09,42.1a1.28,1.28,0,0,1,.12.56,1.64,1.64,0,0,1-.36,1,1.11,1.11,0,0,1-.91.47,1.45,1.45,0,0,1-1.5-.89l-3.86-8.81H87.9L84,43.29a1.4,1.4,0,0,1-1.42.88m10.65-22-4,9.34h8.16Z" fill="#00187d"/><path d="M123.11,28.16a12.12,12.12,0,0,1,1.55-2,7.74,7.74,0,0,1,2.19-1.57,6.57,6.57,0,0,1,2.9-.62,6,6,0,0,1,3.88,1.16,6.55,6.55,0,0,1,2.08,3.18,15,15,0,0,1,.65,4.57l0,9.68a1.4,1.4,0,0,1-.43,1,1.38,1.38,0,0,1-1,.42,1.36,1.36,0,0,1-1-.43,1.43,1.43,0,0,1-.42-1l0-9.66a13.68,13.68,0,0,0-.3-2.94,4.47,4.47,0,0,0-1.11-2.2,3.07,3.07,0,0,0-2.36-.85,5.94,5.94,0,0,0-3.3.85A5.06,5.06,0,0,0,124.53,30a7.41,7.41,0,0,0-.62,2.91l0,9.74a1.44,1.44,0,0,1-2.88,0l0-9.72a13.83,13.83,0,0,0-.3-3,4.35,4.35,0,0,0-1.15-2.19,3.28,3.28,0,0,0-2.41-.83,5.35,5.35,0,0,0-4.23,1.68,6.28,6.28,0,0,0-1.49,4.31l0,9.78a1.42,1.42,0,0,1-.42,1,1.44,1.44,0,0,1-2,0,1.44,1.44,0,0,1-.42-1l0-17.29a1.46,1.46,0,0,1,.44-1,1.36,1.36,0,0,1,1-.4,1.28,1.28,0,0,1,1,.4,1.33,1.33,0,0,1,.36,1l.09,2.27A7.62,7.62,0,0,1,112.71,26a8.17,8.17,0,0,1,2-1.42,5.05,5.05,0,0,1,2.36-.58,5.78,5.78,0,0,1,3.83,1.26,7.92,7.92,0,0,1,2.22,2.91" fill="#00187d"/><path d="M150.55,44.12a9.37,9.37,0,0,1-5-1.39A10.13,10.13,0,0,1,141.93,39,10,10,0,0,1,140.6,34a9.74,9.74,0,0,1,1.26-4.87,10,10,0,0,1,3.41-3.6,8.75,8.75,0,0,1,4.8-1.36,8.61,8.61,0,0,1,4.48,1.21,9.31,9.31,0,0,1,3.29,3.25,8.65,8.65,0,0,1,1.24,4.54,3.38,3.38,0,0,1-.32,1.52,1.18,1.18,0,0,1-1.16.63h-14a7.51,7.51,0,0,0,3.65,5.13,6.46,6.46,0,0,0,3.24.83,7.07,7.07,0,0,0,3-.68,6.48,6.48,0,0,0,2.4-1.84,1.42,1.42,0,0,1,2.15-.13,1.38,1.38,0,0,1,.42,1,1.48,1.48,0,0,1-.34.95,9.85,9.85,0,0,1-7.57,3.57m5.59-11.68a6.13,6.13,0,0,0-1-2.74,6.22,6.22,0,0,0-2.15-2,5.76,5.76,0,0,0-2.88-.73,6.12,6.12,0,0,0-3,.74,7,7,0,0,0-2.24,2,7.38,7.38,0,0,0-1.22,2.71Z" fill="#00187d"/><path d="M174.61,25.89a1.5,1.5,0,0,1-.34,1,1,1,0,0,1-.75.44,2.47,2.47,0,0,1-1.13-.27,2.62,2.62,0,0,0-1.27-.28,4.88,4.88,0,0,0-3,.8,4.38,4.38,0,0,0-1.53,2.07,7.82,7.82,0,0,0-.45,2.66V42.73a1.6,1.6,0,0,1-.35,1,1.33,1.33,0,0,1-1.09.43,1.31,1.31,0,0,1-1.07-.43,1.52,1.52,0,0,1-.37-1v-17a1.51,1.51,0,0,1,.47-1.15,1.44,1.44,0,0,1,1-.44,1.12,1.12,0,0,1,.91.43,1.75,1.75,0,0,1,.36,1.16l.17,2.11a4.89,4.89,0,0,1,1-1.74A6.49,6.49,0,0,1,169,24.62a3.93,3.93,0,0,1,2-.59,7.37,7.37,0,0,1,2.54.39,1.47,1.47,0,0,1,1.05,1.47" fill="#00187d"/><path d="M177.4,25.3a1.1,1.1,0,0,1,.46-.88,1.39,1.39,0,0,1,.86-.37,1.6,1.6,0,0,1,1.12.4,1.38,1.38,0,0,1,.44,1.06l0,17.22a1.36,1.36,0,0,1-.43,1,1.39,1.39,0,0,1-1,.43,1.37,1.37,0,0,1-1-.44,1.4,1.4,0,0,1-.42-1Z" fill="#00187d"/><path d="M185.1,34.07a9.8,9.8,0,0,1,1.27-4.92,10.1,10.1,0,0,1,3.41-3.64,8.74,8.74,0,0,1,4.81-1.38,8.54,8.54,0,0,1,3.57.73,9,9,0,0,1,2.78,1.92,8.76,8.76,0,0,1,1.81,2.61,1.37,1.37,0,0,1,.15.61,1.35,1.35,0,0,1-.42,1,1.38,1.38,0,0,1-1,.41,1.45,1.45,0,0,1-.77-.24,1.32,1.32,0,0,1-.53-.6A6.47,6.47,0,0,0,198,28.06,5.68,5.68,0,0,0,194.59,27a6,6,0,0,0-3.37,1,7.3,7.3,0,0,0-2.38,2.61,7.19,7.19,0,0,0-.88,3.5,7.3,7.3,0,0,0,.87,3.51,7.15,7.15,0,0,0,2.39,2.61,6,6,0,0,0,3.37,1,5.74,5.74,0,0,0,3.46-1.07,6.26,6.26,0,0,0,2.12-2.5,1.53,1.53,0,0,1,1.31-.87,1.39,1.39,0,0,1,1,.42,1.42,1.42,0,0,1,.42,1,1.32,1.32,0,0,1-.13.6A9.15,9.15,0,0,1,201,41.4a9.26,9.26,0,0,1-2.8,1.93,8.58,8.58,0,0,1-3.58.73,8.73,8.73,0,0,1-4.82-1.38A9.91,9.91,0,0,1,186.36,39a10.07,10.07,0,0,1-1.26-5" fill="#00187d"/><path d="M216.15,24.05a6.19,6.19,0,0,1,3.7,1.19,19.23,19.23,0,0,1,2.87,2.52l.17-2.42a1.45,1.45,0,0,1,.31-.95,1,1,0,0,1,.86-.4,1.37,1.37,0,0,1,1.35,1.35V42.7a1.27,1.27,0,0,1-.4.95,1.28,1.28,0,0,1-.95.39,1.31,1.31,0,0,1-.95-.39,1.3,1.3,0,0,1-.39-.95V40.51a15.18,15.18,0,0,1-3,2.49,6.57,6.57,0,0,1-3.65,1.12,8.23,8.23,0,0,1-3.67-.82,9.33,9.33,0,0,1-3-2.22,10.46,10.46,0,0,1-2-3.19,10.53,10.53,0,0,1,0-7.55,10.37,10.37,0,0,1,2-3.23,9.82,9.82,0,0,1,3-2.24,8.44,8.44,0,0,1,3.72-.82m6.67,10a7,7,0,0,0-.9-3.47,7.22,7.22,0,0,0-2.4-2.6,5.89,5.89,0,0,0-3.35-1,5.76,5.76,0,0,0-3.34,1,7.14,7.14,0,0,0-2.33,2.66,7.55,7.55,0,0,0,0,7,7.07,7.07,0,0,0,2.29,2.64,5.63,5.63,0,0,0,3.28,1,6,6,0,0,0,3.38-1,7.64,7.64,0,0,0,2.45-2.69,7.1,7.1,0,0,0,.93-3.52" fill="#00187d"/><g clip-path="url(#clip-path-2)"><rect x="229.15" y="22.63" width="19.8" height="30.82" fill="url(#Degradado_sin_nombre_4)"/></g><g clip-path="url(#clip-path-3)"><rect x="252.68" y="22.71" width="3.88" height="21.47" fill="url(#Degradado_sin_nombre_4-2)"/></g><g clip-path="url(#clip-path-4)"><rect x="260.3" y="22.67" width="18.88" height="21.41" fill="url(#Degradado_sin_nombre_4-3)"/></g></g></g></svg>